M48
;GenerationSoftware,Autodesk,EAGLE,9.1.1*%
;CreationDate,2018-08-01T17:24:15Z*%
FMAT,2
ICI,OFF
METRIC,TZ,000.000
T4C0.350
T3C1.016
T2C1.118
%
G90
M71
T2
X27959Y87922
X17799Y87922
T3
X8884Y85052
X36824Y85052
X34284Y85052
X31744Y85052
X29204Y85052
X26664Y85052
X24124Y85052
X21584Y85052
X19044Y85052
X16504Y85052
X13964Y85052
X11424Y85052
X41904Y85052
X39402Y91172
X41942Y91172
X39402Y88632
X41942Y88632
X36257Y91210
X26781Y90479
X29321Y90479
X36397Y87891
X39364Y85052
X8890Y93980
X11430Y93980
X13970Y93980
X16510Y93980
X19050Y93980
X21590Y93980
X24130Y93980
X26670Y93980
X29210Y93980
X31750Y93980
X34290Y93980
X36830Y93980
X39370Y93980
X41910Y93980
T4
X16542Y90279
X24148Y89326
X31756Y90349
X32970Y86926
X8899Y89479
M30