G75*
%MOIN*%
%OFA0B0*%
%FSLAX25Y25*%
%IPPOS*%
%LPD*%
%AMOC8*
5,1,8,0,0,1.08239X$1,22.5*
%
%ADD10C,0.06600*%
%ADD11C,0.06000*%
%ADD12OC8,0.06000*%
%ADD13C,0.01200*%
%ADD14C,0.02000*%
%ADD15C,0.02978*%
D10*
X0043380Y0026699D03*
X0083380Y0026699D03*
D11*
X0078742Y0033764D02*
X0078742Y0039764D01*
X0088742Y0039764D02*
X0088742Y0033764D01*
X0088304Y0047548D02*
X0088304Y0053548D01*
X0098304Y0053548D02*
X0098304Y0047548D01*
X0108304Y0047548D02*
X0108304Y0053548D01*
X0118304Y0053548D02*
X0118304Y0047548D01*
X0128304Y0047548D02*
X0128304Y0053548D01*
X0138304Y0053548D02*
X0138304Y0047548D01*
X0078304Y0047548D02*
X0078304Y0053548D01*
X0068304Y0053548D02*
X0068304Y0047548D01*
X0058304Y0047548D02*
X0058304Y0053548D01*
X0048304Y0053548D02*
X0048304Y0047548D01*
X0038304Y0047548D02*
X0038304Y0053548D01*
X0028304Y0053548D02*
X0028304Y0047548D01*
X0018304Y0047548D02*
X0018304Y0053548D01*
X0008304Y0053548D02*
X0008304Y0047548D01*
X0008279Y0018400D02*
X0008279Y0012400D01*
X0018279Y0012400D02*
X0018279Y0018400D01*
X0028279Y0018400D02*
X0028279Y0012400D01*
X0038279Y0012400D02*
X0038279Y0018400D01*
X0048279Y0018400D02*
X0048279Y0012400D01*
X0058279Y0012400D02*
X0058279Y0018400D01*
X0068279Y0018400D02*
X0068279Y0012400D01*
X0078279Y0012400D02*
X0078279Y0018400D01*
X0088279Y0018400D02*
X0088279Y0012400D01*
X0098279Y0012400D02*
X0098279Y0018400D01*
X0108279Y0018400D02*
X0108279Y0012400D01*
X0118279Y0012400D02*
X0118279Y0018400D01*
X0128279Y0018400D02*
X0128279Y0012400D01*
X0138279Y0012400D02*
X0138279Y0018400D01*
D12*
X0138431Y0029493D03*
X0128431Y0029493D03*
X0128431Y0039493D03*
X0138431Y0039493D03*
X0116048Y0039642D03*
D13*
X0117014Y0028368D02*
X0117614Y0028968D01*
X0119008Y0027550D01*
X0118991Y0025563D01*
X0117573Y0024169D01*
X0115586Y0024186D01*
X0114192Y0025604D01*
X0114209Y0027591D01*
X0115627Y0028985D01*
X0117614Y0028968D01*
X0117234Y0028071D01*
X0118105Y0027184D01*
X0118094Y0025943D01*
X0117207Y0025072D01*
X0115966Y0025083D01*
X0115095Y0025970D01*
X0115106Y0027211D01*
X0115993Y0028082D01*
X0117234Y0028071D01*
X0116853Y0027174D01*
X0117202Y0026819D01*
X0117197Y0026324D01*
X0116842Y0025975D01*
X0116347Y0025980D01*
X0115998Y0026335D01*
X0116003Y0026830D01*
X0116358Y0027179D01*
X0116853Y0027174D01*
D14*
X0013279Y0011405D02*
X0012804Y0010259D01*
X0013755Y0010257D01*
X0013279Y0011405D01*
X0013279Y0019395D01*
X0014040Y0021232D01*
X0015447Y0022639D01*
X0017284Y0023400D01*
X0019273Y0023400D01*
X0021111Y0022639D01*
X0022518Y0021232D01*
X0023279Y0019395D01*
X0023279Y0011405D01*
X0023764Y0010234D01*
X0022794Y0010236D01*
X0023279Y0011405D01*
X0023279Y0019395D01*
X0024040Y0021232D01*
X0025447Y0022639D01*
X0027284Y0023400D01*
X0029273Y0023400D01*
X0031111Y0022639D01*
X0032518Y0021232D01*
X0033279Y0019395D01*
X0033279Y0011405D01*
X0033774Y0010210D01*
X0032785Y0010212D01*
X0033279Y0011405D01*
X0033279Y0019395D01*
X0034040Y0021232D01*
X0034279Y0021471D01*
X0034279Y0023228D01*
X0034080Y0023708D01*
X0034080Y0034753D01*
X0033942Y0035085D01*
X0033942Y0036871D01*
X0034626Y0038521D01*
X0035888Y0039784D01*
X0037538Y0040467D01*
X0039324Y0040467D01*
X0040974Y0039784D01*
X0042237Y0038521D01*
X0042920Y0036871D01*
X0042920Y0035085D01*
X0042237Y0033436D01*
X0042080Y0033279D01*
X0042080Y0031849D01*
X0042139Y0031868D01*
X0042963Y0031999D01*
X0043280Y0031999D01*
X0043280Y0026799D01*
X0043480Y0026799D01*
X0043480Y0031999D01*
X0043797Y0031999D01*
X0044621Y0031868D01*
X0045415Y0031611D01*
X0046158Y0031232D01*
X0046833Y0030742D01*
X0047423Y0030152D01*
X0047913Y0029477D01*
X0048292Y0028733D01*
X0048550Y0027940D01*
X0048680Y0027116D01*
X0048680Y0026799D01*
X0043480Y0026799D01*
X0043480Y0026599D01*
X0043480Y0021399D01*
X0043797Y0021399D01*
X0044284Y0021476D01*
X0044040Y0021232D01*
X0043279Y0019395D01*
X0043279Y0011405D01*
X0043784Y0010187D01*
X0042775Y0010189D01*
X0043279Y0011405D01*
X0043279Y0019395D01*
X0042518Y0021232D01*
X0042279Y0021471D01*
X0042279Y0021507D01*
X0042963Y0021399D01*
X0043280Y0021399D01*
X0043280Y0026599D01*
X0043480Y0026599D01*
X0048680Y0026599D01*
X0048680Y0026282D01*
X0048550Y0025458D01*
X0048292Y0024664D01*
X0047913Y0023921D01*
X0047534Y0023400D01*
X0049273Y0023400D01*
X0051111Y0022639D01*
X0052518Y0021232D01*
X0053279Y0019395D01*
X0053279Y0011405D01*
X0053793Y0010163D01*
X0052765Y0010166D01*
X0053279Y0011405D01*
X0053279Y0019395D01*
X0054040Y0021232D01*
X0055447Y0022639D01*
X0057284Y0023400D01*
X0059273Y0023400D01*
X0061111Y0022639D01*
X0062518Y0021232D01*
X0063279Y0019395D01*
X0063279Y0011405D01*
X0063803Y0010140D01*
X0062756Y0010142D01*
X0063279Y0011405D01*
X0063279Y0019395D01*
X0064040Y0021232D01*
X0064279Y0021471D01*
X0064279Y0030385D01*
X0063886Y0031335D01*
X0063886Y0033120D01*
X0064569Y0034770D01*
X0065832Y0036033D01*
X0067482Y0036716D01*
X0069268Y0036716D01*
X0070917Y0036033D01*
X0072180Y0034770D01*
X0072864Y0033120D01*
X0072864Y0031335D01*
X0072279Y0029923D01*
X0072279Y0021471D01*
X0072518Y0021232D01*
X0073279Y0019395D01*
X0073279Y0011405D01*
X0073813Y0010116D01*
X0072746Y0010119D01*
X0073279Y0011405D01*
X0073279Y0019395D01*
X0074040Y0021232D01*
X0075447Y0022639D01*
X0077284Y0023400D01*
X0079184Y0023400D01*
X0078887Y0023697D01*
X0078080Y0025645D01*
X0078080Y0027753D01*
X0078499Y0028764D01*
X0077748Y0028764D01*
X0075910Y0029525D01*
X0074503Y0030932D01*
X0073742Y0032769D01*
X0073742Y0040759D01*
X0074503Y0042596D01*
X0075391Y0043484D01*
X0075047Y0043735D01*
X0074490Y0044291D01*
X0074028Y0044928D01*
X0073671Y0045629D01*
X0073427Y0046378D01*
X0073304Y0047155D01*
X0073304Y0050548D01*
X0078304Y0050548D01*
X0078304Y0050548D01*
X0078304Y0050548D01*
X0083304Y0050548D01*
X0083304Y0047155D01*
X0083181Y0046378D01*
X0082938Y0045629D01*
X0082581Y0044928D01*
X0082118Y0044291D01*
X0081702Y0043875D01*
X0082981Y0042596D01*
X0083742Y0040759D01*
X0083742Y0032769D01*
X0083423Y0031999D01*
X0084058Y0031999D01*
X0083865Y0032593D01*
X0083742Y0033370D01*
X0083742Y0036764D01*
X0088742Y0036764D01*
X0088742Y0036764D01*
X0083742Y0036764D01*
X0083742Y0040157D01*
X0083865Y0040935D01*
X0084108Y0041683D01*
X0084466Y0042385D01*
X0084928Y0043021D01*
X0085344Y0043437D01*
X0084065Y0044716D01*
X0083304Y0046554D01*
X0083304Y0054543D01*
X0083788Y0055712D01*
X0082814Y0055711D01*
X0082938Y0055468D01*
X0083181Y0054719D01*
X0083304Y0053942D01*
X0083304Y0050548D01*
X0078304Y0050548D01*
X0073304Y0050548D01*
X0073304Y0053942D01*
X0073427Y0054719D01*
X0073671Y0055468D01*
X0073793Y0055709D01*
X0072822Y0055708D01*
X0073304Y0054543D01*
X0073304Y0046554D01*
X0072543Y0044716D01*
X0071136Y0043310D01*
X0069299Y0042548D01*
X0067310Y0042548D01*
X0065472Y0043310D01*
X0064065Y0044716D01*
X0063304Y0046554D01*
X0063304Y0054543D01*
X0062823Y0055705D01*
X0063786Y0055706D01*
X0063304Y0054543D01*
X0063304Y0046554D01*
X0062543Y0044716D01*
X0061136Y0043310D01*
X0059299Y0042548D01*
X0057310Y0042548D01*
X0055472Y0043310D01*
X0054065Y0044716D01*
X0053304Y0046554D01*
X0053304Y0054543D01*
X0053784Y0055702D01*
X0052818Y0055702D01*
X0052938Y0055468D01*
X0053181Y0054719D01*
X0053304Y0053942D01*
X0053304Y0050548D01*
X0048304Y0050548D01*
X0048304Y0050548D01*
X0048304Y0042548D01*
X0047911Y0042548D01*
X0047133Y0042672D01*
X0046385Y0042915D01*
X0045684Y0043272D01*
X0045047Y0043735D01*
X0044490Y0044291D01*
X0044028Y0044928D01*
X0043671Y0045629D01*
X0043427Y0046378D01*
X0043304Y0047155D01*
X0043304Y0050548D01*
X0048304Y0050548D01*
X0048304Y0050548D01*
X0048304Y0042548D01*
X0048698Y0042548D01*
X0049475Y0042672D01*
X0050224Y0042915D01*
X0050925Y0043272D01*
X0051561Y0043735D01*
X0052118Y0044291D01*
X0052581Y0044928D01*
X0052938Y0045629D01*
X0053181Y0046378D01*
X0053304Y0047155D01*
X0053304Y0050548D01*
X0048304Y0050548D01*
X0048304Y0050548D01*
X0043304Y0050548D01*
X0043304Y0053942D01*
X0043427Y0054719D01*
X0043671Y0055468D01*
X0043789Y0055699D01*
X0042825Y0055699D01*
X0043304Y0054543D01*
X0043304Y0046554D01*
X0042543Y0044716D01*
X0041136Y0043310D01*
X0039299Y0042548D01*
X0037310Y0042548D01*
X0035472Y0043310D01*
X0034065Y0044716D01*
X0033304Y0046554D01*
X0033304Y0054543D01*
X0032827Y0055696D01*
X0033782Y0055696D01*
X0033304Y0054543D01*
X0033304Y0046554D01*
X0032543Y0044716D01*
X0031136Y0043310D01*
X0029299Y0042548D01*
X0027310Y0042548D01*
X0025472Y0043310D01*
X0024065Y0044716D01*
X0023304Y0046554D01*
X0023304Y0054543D01*
X0023781Y0055693D01*
X0022823Y0055693D01*
X0022938Y0055468D01*
X0023181Y0054719D01*
X0023304Y0053942D01*
X0023304Y0050548D01*
X0018304Y0050548D01*
X0018304Y0050548D01*
X0018304Y0042548D01*
X0017911Y0042548D01*
X0017133Y0042672D01*
X0016385Y0042915D01*
X0015684Y0043272D01*
X0015047Y0043735D01*
X0014490Y0044291D01*
X0014028Y0044928D01*
X0013671Y0045629D01*
X0013427Y0046378D01*
X0013304Y0047155D01*
X0013304Y0050548D01*
X0018304Y0050548D01*
X0018304Y0050548D01*
X0018304Y0042548D01*
X0018698Y0042548D01*
X0019475Y0042672D01*
X0020224Y0042915D01*
X0020925Y0043272D01*
X0021561Y0043735D01*
X0022118Y0044291D01*
X0022581Y0044928D01*
X0022938Y0045629D01*
X0023181Y0046378D01*
X0023304Y0047155D01*
X0023304Y0050548D01*
X0018304Y0050548D01*
X0018304Y0050548D01*
X0013304Y0050548D01*
X0013304Y0053942D01*
X0013427Y0054719D01*
X0013671Y0055468D01*
X0013784Y0055690D01*
X0012829Y0055690D01*
X0013304Y0054543D01*
X0013304Y0046554D01*
X0012543Y0044716D01*
X0011136Y0043310D01*
X0009299Y0042548D01*
X0007310Y0042548D01*
X0005472Y0043310D01*
X0005131Y0043651D01*
X0005155Y0035993D01*
X0005795Y0036633D01*
X0007445Y0037317D01*
X0009231Y0037317D01*
X0010881Y0036633D01*
X0012144Y0035370D01*
X0012827Y0033721D01*
X0012827Y0031935D01*
X0012279Y0030611D01*
X0012279Y0021471D01*
X0012518Y0021232D01*
X0013279Y0019395D01*
X0013279Y0011405D01*
X0013279Y0012301D02*
X0013279Y0012301D01*
X0013279Y0014300D02*
X0013279Y0014300D01*
X0013279Y0016298D02*
X0013279Y0016298D01*
X0013279Y0018297D02*
X0013279Y0018297D01*
X0012906Y0020295D02*
X0013652Y0020295D01*
X0012279Y0022294D02*
X0015102Y0022294D01*
X0012279Y0024292D02*
X0034080Y0024292D01*
X0038080Y0024504D02*
X0038279Y0024305D01*
X0038279Y0015400D01*
X0033279Y0016298D02*
X0033279Y0016298D01*
X0033279Y0014300D02*
X0033279Y0014300D01*
X0033279Y0012301D02*
X0033279Y0012301D01*
X0032822Y0010303D02*
X0033736Y0010303D01*
X0042822Y0010303D02*
X0043736Y0010303D01*
X0043279Y0012301D02*
X0043279Y0012301D01*
X0043279Y0014300D02*
X0043279Y0014300D01*
X0043279Y0016298D02*
X0043279Y0016298D01*
X0043279Y0018297D02*
X0043279Y0018297D01*
X0042906Y0020295D02*
X0043652Y0020295D01*
X0043480Y0022294D02*
X0043280Y0022294D01*
X0043280Y0024292D02*
X0043480Y0024292D01*
X0043480Y0026291D02*
X0043280Y0026291D01*
X0043280Y0028289D02*
X0043480Y0028289D01*
X0043480Y0030288D02*
X0043280Y0030288D01*
X0047286Y0030288D02*
X0064279Y0030288D01*
X0064279Y0028289D02*
X0048436Y0028289D01*
X0048680Y0026291D02*
X0064279Y0026291D01*
X0064279Y0024292D02*
X0048102Y0024292D01*
X0051456Y0022294D02*
X0055102Y0022294D01*
X0053652Y0020295D02*
X0052906Y0020295D01*
X0053279Y0018297D02*
X0053279Y0018297D01*
X0053279Y0016298D02*
X0053279Y0016298D01*
X0053279Y0014300D02*
X0053279Y0014300D01*
X0053279Y0012301D02*
X0053279Y0012301D01*
X0052822Y0010303D02*
X0053736Y0010303D01*
X0062822Y0010303D02*
X0063736Y0010303D01*
X0063279Y0012301D02*
X0063279Y0012301D01*
X0063279Y0014300D02*
X0063279Y0014300D01*
X0063279Y0016298D02*
X0063279Y0016298D01*
X0063279Y0018297D02*
X0063279Y0018297D01*
X0062906Y0020295D02*
X0063652Y0020295D01*
X0064279Y0022294D02*
X0061456Y0022294D01*
X0072279Y0022294D02*
X0075102Y0022294D01*
X0073652Y0020295D02*
X0072906Y0020295D01*
X0073279Y0018297D02*
X0073279Y0018297D01*
X0073279Y0016298D02*
X0073279Y0016298D01*
X0073279Y0014300D02*
X0073279Y0014300D01*
X0073279Y0012301D02*
X0073279Y0012301D01*
X0072822Y0010303D02*
X0073736Y0010303D01*
X0068279Y0015400D02*
X0068279Y0032132D01*
X0068375Y0032227D01*
X0072864Y0032286D02*
X0073942Y0032286D01*
X0073742Y0034285D02*
X0072381Y0034285D01*
X0073742Y0036283D02*
X0070313Y0036283D01*
X0066436Y0036283D02*
X0042920Y0036283D01*
X0042336Y0038282D02*
X0073742Y0038282D01*
X0073742Y0040280D02*
X0039775Y0040280D01*
X0037087Y0040280D02*
X0005142Y0040280D01*
X0005148Y0038282D02*
X0034527Y0038282D01*
X0033942Y0036283D02*
X0011231Y0036283D01*
X0012593Y0034285D02*
X0034080Y0034285D01*
X0034080Y0032286D02*
X0012827Y0032286D01*
X0012279Y0030288D02*
X0034080Y0030288D01*
X0034080Y0028289D02*
X0012279Y0028289D01*
X0012279Y0026291D02*
X0034080Y0026291D01*
X0038080Y0024504D02*
X0038080Y0035627D01*
X0038431Y0035978D01*
X0042589Y0034285D02*
X0064368Y0034285D01*
X0063886Y0032286D02*
X0042080Y0032286D01*
X0034279Y0022294D02*
X0031456Y0022294D01*
X0032906Y0020295D02*
X0033652Y0020295D01*
X0033279Y0018297D02*
X0033279Y0018297D01*
X0025102Y0022294D02*
X0021456Y0022294D01*
X0022906Y0020295D02*
X0023652Y0020295D01*
X0023279Y0018297D02*
X0023279Y0018297D01*
X0023279Y0016298D02*
X0023279Y0016298D01*
X0023279Y0014300D02*
X0023279Y0014300D01*
X0023279Y0012301D02*
X0023279Y0012301D01*
X0022822Y0010303D02*
X0023736Y0010303D01*
X0013736Y0010303D02*
X0012822Y0010303D01*
X0008279Y0015400D02*
X0008279Y0032768D01*
X0008338Y0032828D01*
X0005446Y0036283D02*
X0005155Y0036283D01*
X0005135Y0042279D02*
X0074372Y0042279D01*
X0074504Y0044278D02*
X0072104Y0044278D01*
X0073189Y0046276D02*
X0073460Y0046276D01*
X0082104Y0044278D02*
X0084504Y0044278D01*
X0084412Y0042279D02*
X0083112Y0042279D01*
X0083742Y0040280D02*
X0083762Y0040280D01*
X0083742Y0038282D02*
X0083742Y0038282D01*
X0088742Y0036764D02*
X0088742Y0036764D01*
X0088742Y0028764D01*
X0088349Y0028764D01*
X0088255Y0028779D01*
X0088680Y0027753D01*
X0088680Y0025645D01*
X0087873Y0023697D01*
X0087576Y0023400D01*
X0089273Y0023400D01*
X0091111Y0022639D01*
X0092518Y0021232D01*
X0093279Y0019395D01*
X0093279Y0011405D01*
X0093832Y0010070D01*
X0092727Y0010072D01*
X0093279Y0011405D01*
X0093279Y0019395D01*
X0094040Y0021232D01*
X0094329Y0021522D01*
X0094329Y0034178D01*
X0093840Y0035359D01*
X0093840Y0037145D01*
X0094524Y0038795D01*
X0095787Y0040057D01*
X0097436Y0040741D01*
X0099222Y0040741D01*
X0100872Y0040057D01*
X0102135Y0038795D01*
X0102818Y0037145D01*
X0102818Y0035359D01*
X0102329Y0034178D01*
X0102329Y0027264D01*
X0104002Y0027264D01*
X0104543Y0027040D01*
X0105412Y0027400D01*
X0111146Y0027400D01*
X0111585Y0027218D01*
X0111606Y0027239D01*
X0111619Y0028691D01*
X0114573Y0031595D01*
X0118472Y0031561D01*
X0117806Y0032227D01*
X0115391Y0034642D01*
X0113977Y0034642D01*
X0111048Y0037571D01*
X0111048Y0041713D01*
X0113977Y0044642D01*
X0114140Y0044642D01*
X0114065Y0044716D01*
X0113304Y0046554D01*
X0113304Y0054543D01*
X0113792Y0055721D01*
X0112809Y0055720D01*
X0112938Y0055468D01*
X0113181Y0054719D01*
X0113304Y0053942D01*
X0113304Y0050548D01*
X0108304Y0050548D01*
X0108304Y0050548D01*
X0108304Y0042548D01*
X0107911Y0042548D01*
X0107133Y0042672D01*
X0106385Y0042915D01*
X0105684Y0043272D01*
X0105047Y0043735D01*
X0104490Y0044291D01*
X0104028Y0044928D01*
X0103671Y0045629D01*
X0103427Y0046378D01*
X0103304Y0047155D01*
X0103304Y0050548D01*
X0108304Y0050548D01*
X0108304Y0050548D01*
X0108304Y0042548D01*
X0108698Y0042548D01*
X0109475Y0042672D01*
X0110224Y0042915D01*
X0110925Y0043272D01*
X0111561Y0043735D01*
X0112118Y0044291D01*
X0112581Y0044928D01*
X0112938Y0045629D01*
X0113181Y0046378D01*
X0113304Y0047155D01*
X0113304Y0050548D01*
X0108304Y0050548D01*
X0108304Y0050548D01*
X0103304Y0050548D01*
X0103304Y0053942D01*
X0103427Y0054719D01*
X0103671Y0055468D01*
X0103798Y0055718D01*
X0102818Y0055717D01*
X0103304Y0054543D01*
X0103304Y0046554D01*
X0102543Y0044716D01*
X0101136Y0043310D01*
X0099299Y0042548D01*
X0097310Y0042548D01*
X0095472Y0043310D01*
X0094065Y0044716D01*
X0093304Y0046554D01*
X0093304Y0054543D01*
X0092819Y0055714D01*
X0093789Y0055715D01*
X0093304Y0054543D01*
X0093304Y0046554D01*
X0092543Y0044716D01*
X0091655Y0043828D01*
X0091999Y0043578D01*
X0092556Y0043021D01*
X0093018Y0042385D01*
X0093376Y0041683D01*
X0093619Y0040935D01*
X0093742Y0040157D01*
X0093742Y0036764D01*
X0088742Y0036764D01*
X0088742Y0028764D01*
X0089136Y0028764D01*
X0089913Y0028887D01*
X0090661Y0029130D01*
X0091363Y0029488D01*
X0091999Y0029950D01*
X0092556Y0030507D01*
X0093018Y0031143D01*
X0093376Y0031845D01*
X0093619Y0032593D01*
X0093742Y0033370D01*
X0093742Y0036764D01*
X0088742Y0036764D01*
X0088742Y0036764D01*
X0088742Y0036283D02*
X0088742Y0036283D01*
X0093742Y0036283D02*
X0093840Y0036283D01*
X0093742Y0038282D02*
X0094311Y0038282D01*
X0093723Y0040280D02*
X0096325Y0040280D01*
X0093072Y0042279D02*
X0111614Y0042279D01*
X0112104Y0044278D02*
X0113612Y0044278D01*
X0113419Y0046276D02*
X0113148Y0046276D01*
X0113304Y0048275D02*
X0113304Y0048275D01*
X0113304Y0050273D02*
X0113304Y0050273D01*
X0113304Y0052272D02*
X0113304Y0052272D01*
X0113252Y0054270D02*
X0113304Y0054270D01*
X0108304Y0050273D02*
X0108304Y0050273D01*
X0108304Y0048275D02*
X0108304Y0048275D01*
X0108304Y0046276D02*
X0108304Y0046276D01*
X0108304Y0044278D02*
X0108304Y0044278D01*
X0104504Y0044278D02*
X0102104Y0044278D01*
X0103189Y0046276D02*
X0103460Y0046276D01*
X0094504Y0044278D02*
X0092104Y0044278D01*
X0093189Y0046276D02*
X0093419Y0046276D01*
X0093304Y0048275D02*
X0093304Y0048275D01*
X0093304Y0050273D02*
X0093304Y0050273D01*
X0093304Y0052272D02*
X0093304Y0052272D01*
X0093304Y0054270D02*
X0093304Y0054270D01*
X0083304Y0054270D02*
X0083252Y0054270D01*
X0083304Y0052272D02*
X0083304Y0052272D01*
X0083304Y0050273D02*
X0083304Y0050273D01*
X0083304Y0048275D02*
X0083304Y0048275D01*
X0083419Y0046276D02*
X0083148Y0046276D01*
X0073304Y0052272D02*
X0073304Y0052272D01*
X0073304Y0054270D02*
X0073356Y0054270D01*
X0063304Y0054270D02*
X0063304Y0054270D01*
X0063304Y0052272D02*
X0063304Y0052272D01*
X0063304Y0050273D02*
X0063304Y0050273D01*
X0063304Y0048275D02*
X0063304Y0048275D01*
X0063189Y0046276D02*
X0063419Y0046276D01*
X0064504Y0044278D02*
X0062104Y0044278D01*
X0054504Y0044278D02*
X0052104Y0044278D01*
X0048304Y0044278D02*
X0048304Y0044278D01*
X0048304Y0046276D02*
X0048304Y0046276D01*
X0048304Y0048275D02*
X0048304Y0048275D01*
X0048304Y0050273D02*
X0048304Y0050273D01*
X0053304Y0050273D02*
X0053304Y0050273D01*
X0053304Y0048275D02*
X0053304Y0048275D01*
X0053419Y0046276D02*
X0053148Y0046276D01*
X0044504Y0044278D02*
X0042104Y0044278D01*
X0043189Y0046276D02*
X0043460Y0046276D01*
X0034504Y0044278D02*
X0032104Y0044278D01*
X0033189Y0046276D02*
X0033419Y0046276D01*
X0033304Y0048275D02*
X0033304Y0048275D01*
X0033304Y0050273D02*
X0033304Y0050273D01*
X0033304Y0052272D02*
X0033304Y0052272D01*
X0033304Y0054270D02*
X0033304Y0054270D01*
X0023304Y0054270D02*
X0023252Y0054270D01*
X0023304Y0052272D02*
X0023304Y0052272D01*
X0023304Y0050273D02*
X0023304Y0050273D01*
X0023304Y0048275D02*
X0023304Y0048275D01*
X0023419Y0046276D02*
X0023148Y0046276D01*
X0022104Y0044278D02*
X0024504Y0044278D01*
X0018304Y0044278D02*
X0018304Y0044278D01*
X0014504Y0044278D02*
X0012104Y0044278D01*
X0013189Y0046276D02*
X0013460Y0046276D01*
X0018304Y0046276D02*
X0018304Y0046276D01*
X0018304Y0048275D02*
X0018304Y0048275D01*
X0018304Y0050273D02*
X0018304Y0050273D01*
X0013304Y0052272D02*
X0013304Y0052272D01*
X0013304Y0054270D02*
X0013356Y0054270D01*
X0043304Y0054270D02*
X0043356Y0054270D01*
X0043304Y0052272D02*
X0043304Y0052272D01*
X0053304Y0052272D02*
X0053304Y0052272D01*
X0053252Y0054270D02*
X0053304Y0054270D01*
X0098329Y0036252D02*
X0098329Y0015450D01*
X0098279Y0015400D01*
X0093279Y0016298D02*
X0093279Y0016298D01*
X0093279Y0014300D02*
X0093279Y0014300D01*
X0093279Y0012301D02*
X0093279Y0012301D01*
X0092822Y0010303D02*
X0093736Y0010303D01*
X0093279Y0018297D02*
X0093279Y0018297D01*
X0092906Y0020295D02*
X0093652Y0020295D01*
X0094329Y0022294D02*
X0091456Y0022294D01*
X0094329Y0024292D02*
X0088120Y0024292D01*
X0088680Y0026291D02*
X0094329Y0026291D01*
X0094329Y0028289D02*
X0088458Y0028289D01*
X0088742Y0030288D02*
X0088742Y0030288D01*
X0092337Y0030288D02*
X0094329Y0030288D01*
X0094329Y0032286D02*
X0093519Y0032286D01*
X0093742Y0034285D02*
X0094285Y0034285D01*
X0088742Y0034285D02*
X0088742Y0034285D01*
X0088742Y0032286D02*
X0088742Y0032286D01*
X0083965Y0032286D02*
X0083542Y0032286D01*
X0078302Y0028289D02*
X0072279Y0028289D01*
X0072279Y0026291D02*
X0078080Y0026291D01*
X0078640Y0024292D02*
X0072279Y0024292D01*
X0072430Y0030288D02*
X0075147Y0030288D01*
X0100334Y0040280D02*
X0111048Y0040280D01*
X0111048Y0038282D02*
X0102347Y0038282D01*
X0102818Y0036283D02*
X0112335Y0036283D01*
X0115748Y0034285D02*
X0102373Y0034285D01*
X0102329Y0032286D02*
X0117746Y0032286D01*
X0113243Y0030288D02*
X0102329Y0030288D01*
X0102329Y0028289D02*
X0111615Y0028289D01*
X0116600Y0026577D02*
X0112799Y0022775D01*
X0110975Y0022775D01*
X0110350Y0023400D01*
X0106208Y0023400D01*
X0105583Y0022775D01*
X0103109Y0022775D01*
X0116048Y0039642D02*
X0121197Y0034493D01*
X0130502Y0034493D01*
X0135502Y0029493D01*
X0138431Y0029493D01*
X0138431Y0039493D02*
X0128431Y0039493D01*
X0103304Y0052272D02*
X0103304Y0052272D01*
X0103304Y0054270D02*
X0103356Y0054270D01*
D15*
X0098329Y0036252D03*
X0068375Y0032227D03*
X0038431Y0035978D03*
X0008338Y0032828D03*
X0103109Y0022775D03*
M02*
