%
M48
M72
T01C0.01378
T02C0.04000
T03C0.04400
%
T01
X68375Y32227
X98329Y36252
X103109Y22775
X38431Y35978
X8338Y32828
T02
X8279Y15400
X18279Y15400
X28279Y15400
X38279Y15400
X48279Y15400
X58279Y15400
X68279Y15400
X78279Y15400
X88279Y15400
X98279Y15400
X108279Y15400
X118279Y15400
X128279Y15400
X138279Y15400
X116600Y26577
X128431Y29493
X138431Y29493
X138431Y39493
X128431Y39493
X116048Y39642
X118304Y50548
X108304Y50548
X98304Y50548
X88304Y50548
X78304Y50548
X68304Y50548
X58304Y50548
X48304Y50548
X38304Y50548
X28304Y50548
X18304Y50548
X8304Y50548
X78742Y36764
X88742Y36764
X128304Y50548
X138304Y50548
T03
X83380Y26699
X43380Y26699
M30
