%
M48
M72
T01C0.01378
T02C0.04000
T03C0.04400
%
T01
X59993Y36035
X104566Y47341
X114212Y23515
T02
X10174Y15400
X20174Y15400
X30174Y15400
X40174Y15400
X50174Y15400
X60174Y15400
X70174Y15400
X80174Y15400
X90174Y15400
X100174Y15400
X110174Y15400
X120174Y15400
X130174Y15400
X140174Y15400
X150174Y15400
X138482Y29643
X128482Y29643
X118482Y29643
X108482Y29643
X108482Y39643
X118482Y39643
X128482Y39643
X138482Y39643
X129427Y57828
X119427Y57828
X109427Y57828
X99427Y57828
X89427Y57828
X79427Y57828
X69427Y57828
X59427Y57828
X49427Y57828
X39427Y57828
X29427Y57828
X19427Y57828
X20683Y44706
X10683Y44706
X10683Y34706
X20683Y34706
X30895Y44065
X38396Y35240
X39812Y74148
X29812Y74148
X19812Y74148
X9812Y74148
X49812Y74148
X59812Y74148
X69812Y74148
X79812Y74148
X89812Y74148
X99812Y74148
X109812Y74148
X119812Y74148
X129812Y74148
X139812Y74148
X149812Y74148
T03
X87795Y40488
X47795Y40488
M30
