G75*
%MOIN*%
%OFA0B0*%
%FSLAX25Y25*%
%IPPOS*%
%LPD*%
%AMOC8*
5,1,8,0,0,1.08239X$1,22.5*
%
%ADD10C,0.06600*%
%ADD11OC8,0.06000*%
%ADD12C,0.06000*%
%ADD13C,0.02000*%
%ADD14C,0.00600*%
%ADD15C,0.02978*%
D10*
X0047795Y0040488D03*
X0087795Y0040488D03*
D11*
X0108482Y0039643D03*
X0118482Y0039643D03*
X0128482Y0039643D03*
X0138482Y0039643D03*
X0138482Y0029643D03*
X0128482Y0029643D03*
X0118482Y0029643D03*
X0108482Y0029643D03*
X0038396Y0035240D03*
X0030895Y0044065D03*
X0020683Y0044706D03*
X0010683Y0044706D03*
X0010683Y0034706D03*
X0020683Y0034706D03*
D12*
X0020174Y0018400D02*
X0020174Y0012400D01*
X0030174Y0012400D02*
X0030174Y0018400D01*
X0040174Y0018400D02*
X0040174Y0012400D01*
X0050174Y0012400D02*
X0050174Y0018400D01*
X0060174Y0018400D02*
X0060174Y0012400D01*
X0070174Y0012400D02*
X0070174Y0018400D01*
X0080174Y0018400D02*
X0080174Y0012400D01*
X0090174Y0012400D02*
X0090174Y0018400D01*
X0100174Y0018400D02*
X0100174Y0012400D01*
X0110174Y0012400D02*
X0110174Y0018400D01*
X0120174Y0018400D02*
X0120174Y0012400D01*
X0130174Y0012400D02*
X0130174Y0018400D01*
X0140174Y0018400D02*
X0140174Y0012400D01*
X0150174Y0012400D02*
X0150174Y0018400D01*
X0129427Y0054828D02*
X0129427Y0060828D01*
X0119427Y0060828D02*
X0119427Y0054828D01*
X0109427Y0054828D02*
X0109427Y0060828D01*
X0099427Y0060828D02*
X0099427Y0054828D01*
X0089427Y0054828D02*
X0089427Y0060828D01*
X0079427Y0060828D02*
X0079427Y0054828D01*
X0069427Y0054828D02*
X0069427Y0060828D01*
X0059427Y0060828D02*
X0059427Y0054828D01*
X0049427Y0054828D02*
X0049427Y0060828D01*
X0039427Y0060828D02*
X0039427Y0054828D01*
X0029427Y0054828D02*
X0029427Y0060828D01*
X0019427Y0060828D02*
X0019427Y0054828D01*
X0019812Y0071148D02*
X0019812Y0077148D01*
X0009812Y0077148D02*
X0009812Y0071148D01*
X0029812Y0071148D02*
X0029812Y0077148D01*
X0039812Y0077148D02*
X0039812Y0071148D01*
X0049812Y0071148D02*
X0049812Y0077148D01*
X0059812Y0077148D02*
X0059812Y0071148D01*
X0069812Y0071148D02*
X0069812Y0077148D01*
X0079812Y0077148D02*
X0079812Y0071148D01*
X0089812Y0071148D02*
X0089812Y0077148D01*
X0099812Y0077148D02*
X0099812Y0071148D01*
X0109812Y0071148D02*
X0109812Y0077148D01*
X0119812Y0077148D02*
X0119812Y0071148D01*
X0129812Y0071148D02*
X0129812Y0077148D01*
X0139812Y0077148D02*
X0139812Y0071148D01*
X0149812Y0071148D02*
X0149812Y0077148D01*
X0010174Y0018400D02*
X0010174Y0012400D01*
D13*
X0059993Y0036035D02*
X0066384Y0029643D01*
X0108482Y0029643D01*
X0114212Y0023515D02*
X0114212Y0023495D01*
X0132150Y0023495D01*
X0135174Y0020471D01*
X0135174Y0020400D01*
X0140174Y0015400D01*
X0128482Y0039643D02*
X0128482Y0046812D01*
X0134812Y0053142D01*
X0134812Y0069148D01*
X0139812Y0074148D01*
X0114427Y0069534D02*
X0114427Y0052757D01*
X0118482Y0048701D01*
X0118482Y0039643D01*
X0104566Y0047341D02*
X0104566Y0052617D01*
X0104427Y0052757D01*
X0104427Y0062899D01*
X0104566Y0063038D01*
X0104566Y0069394D01*
X0099812Y0074148D01*
X0109812Y0074148D02*
X0114427Y0069534D01*
X0059812Y0074148D02*
X0055747Y0074148D01*
X0054812Y0073213D01*
X0054812Y0069077D01*
X0051883Y0066148D01*
X0047676Y0066148D01*
X0044427Y0062899D01*
X0044427Y0062828D01*
X0039427Y0057828D01*
X0044218Y0044065D02*
X0030895Y0044065D01*
X0044218Y0044065D02*
X0047795Y0040488D01*
D14*
X0005656Y0069945D02*
X0005656Y0009590D01*
X0006902Y0009590D01*
X0006894Y0009599D01*
X0006496Y0010146D01*
X0006189Y0010749D01*
X0005979Y0011393D01*
X0005874Y0012062D01*
X0005874Y0015100D01*
X0009873Y0015100D01*
X0009873Y0015700D01*
X0005874Y0015700D01*
X0005874Y0018738D01*
X0005979Y0019407D01*
X0006189Y0020051D01*
X0006496Y0020654D01*
X0006894Y0021201D01*
X0007372Y0021680D01*
X0007920Y0022078D01*
X0008523Y0022385D01*
X0009167Y0022594D01*
X0009835Y0022700D01*
X0009874Y0022700D01*
X0009874Y0015700D01*
X0010474Y0015700D01*
X0014474Y0015700D01*
X0014474Y0018738D01*
X0014368Y0019407D01*
X0014159Y0020051D01*
X0013851Y0020654D01*
X0013453Y0021201D01*
X0012975Y0021680D01*
X0012427Y0022078D01*
X0011824Y0022385D01*
X0011180Y0022594D01*
X0010512Y0022700D01*
X0010474Y0022700D01*
X0010474Y0015700D01*
X0010474Y0015100D01*
X0014474Y0015100D01*
X0014474Y0012062D01*
X0014368Y0011393D01*
X0014159Y0010749D01*
X0013851Y0010146D01*
X0013453Y0009599D01*
X0013445Y0009590D01*
X0016902Y0009590D01*
X0016528Y0009964D01*
X0015874Y0011545D01*
X0015874Y0019255D01*
X0016528Y0020836D01*
X0017738Y0022045D01*
X0019318Y0022700D01*
X0021029Y0022700D01*
X0022609Y0022045D01*
X0023819Y0020836D01*
X0024474Y0019255D01*
X0024474Y0011545D01*
X0023819Y0009964D01*
X0023445Y0009590D01*
X0026902Y0009590D01*
X0026528Y0009964D01*
X0025874Y0011545D01*
X0025874Y0019255D01*
X0026528Y0020836D01*
X0027738Y0022045D01*
X0029318Y0022700D01*
X0031029Y0022700D01*
X0032609Y0022045D01*
X0033819Y0020836D01*
X0034474Y0019255D01*
X0034474Y0011545D01*
X0033819Y0009964D01*
X0033445Y0009590D01*
X0036902Y0009590D01*
X0036528Y0009964D01*
X0035874Y0011545D01*
X0035874Y0019255D01*
X0036528Y0020836D01*
X0037738Y0022045D01*
X0039318Y0022700D01*
X0041029Y0022700D01*
X0042609Y0022045D01*
X0043819Y0020836D01*
X0044474Y0019255D01*
X0044474Y0011545D01*
X0043819Y0009964D01*
X0043445Y0009590D01*
X0046902Y0009590D01*
X0046528Y0009964D01*
X0045874Y0011545D01*
X0045874Y0019255D01*
X0046528Y0020836D01*
X0047738Y0022045D01*
X0049318Y0022700D01*
X0051029Y0022700D01*
X0052609Y0022045D01*
X0053819Y0020836D01*
X0054474Y0019255D01*
X0054474Y0011545D01*
X0053819Y0009964D01*
X0053445Y0009590D01*
X0056902Y0009590D01*
X0056528Y0009964D01*
X0055874Y0011545D01*
X0055874Y0019255D01*
X0056528Y0020836D01*
X0057738Y0022045D01*
X0059318Y0022700D01*
X0061029Y0022700D01*
X0062609Y0022045D01*
X0063819Y0020836D01*
X0064474Y0019255D01*
X0064474Y0011545D01*
X0063819Y0009964D01*
X0063445Y0009590D01*
X0066902Y0009590D01*
X0066528Y0009964D01*
X0065874Y0011545D01*
X0065874Y0019255D01*
X0066528Y0020836D01*
X0067738Y0022045D01*
X0069318Y0022700D01*
X0071029Y0022700D01*
X0072609Y0022045D01*
X0073819Y0020836D01*
X0074474Y0019255D01*
X0074474Y0011545D01*
X0073819Y0009964D01*
X0073445Y0009590D01*
X0076902Y0009590D01*
X0076528Y0009964D01*
X0075874Y0011545D01*
X0075874Y0019255D01*
X0076528Y0020836D01*
X0077738Y0022045D01*
X0079318Y0022700D01*
X0081029Y0022700D01*
X0082609Y0022045D01*
X0083819Y0020836D01*
X0084474Y0019255D01*
X0084474Y0011545D01*
X0083819Y0009964D01*
X0083445Y0009590D01*
X0086902Y0009590D01*
X0086528Y0009964D01*
X0085874Y0011545D01*
X0085874Y0019255D01*
X0086528Y0020836D01*
X0087738Y0022045D01*
X0089318Y0022700D01*
X0091029Y0022700D01*
X0092609Y0022045D01*
X0093819Y0020836D01*
X0094474Y0019255D01*
X0094474Y0011545D01*
X0093819Y0009964D01*
X0093445Y0009590D01*
X0096902Y0009590D01*
X0096528Y0009964D01*
X0095874Y0011545D01*
X0095874Y0019255D01*
X0096528Y0020836D01*
X0097738Y0022045D01*
X0099318Y0022700D01*
X0101029Y0022700D01*
X0102609Y0022045D01*
X0103819Y0020836D01*
X0104474Y0019255D01*
X0104474Y0011545D01*
X0103819Y0009964D01*
X0103445Y0009590D01*
X0106902Y0009590D01*
X0106528Y0009964D01*
X0105874Y0011545D01*
X0105874Y0019255D01*
X0106528Y0020836D01*
X0107738Y0022045D01*
X0109318Y0022700D01*
X0110449Y0022700D01*
X0110423Y0022761D01*
X0110423Y0024269D01*
X0111000Y0025661D01*
X0112066Y0026727D01*
X0113458Y0027304D01*
X0114740Y0027304D01*
X0114182Y0027862D01*
X0114182Y0031424D01*
X0116701Y0033943D01*
X0120263Y0033943D01*
X0122782Y0031424D01*
X0122782Y0027862D01*
X0121715Y0026795D01*
X0125249Y0026795D01*
X0124182Y0027862D01*
X0124182Y0031424D01*
X0126701Y0033943D01*
X0130263Y0033943D01*
X0132782Y0031424D01*
X0132782Y0027862D01*
X0131715Y0026795D01*
X0132806Y0026795D01*
X0134019Y0026293D01*
X0134947Y0025364D01*
X0137971Y0022340D01*
X0138021Y0022219D01*
X0138061Y0022179D01*
X0139318Y0022700D01*
X0141029Y0022700D01*
X0142609Y0022045D01*
X0143819Y0020836D01*
X0144474Y0019255D01*
X0144474Y0011545D01*
X0143819Y0009964D01*
X0143445Y0009590D01*
X0146902Y0009590D01*
X0146528Y0009964D01*
X0145874Y0011545D01*
X0145874Y0019255D01*
X0146528Y0020836D01*
X0147738Y0022045D01*
X0149318Y0022700D01*
X0151029Y0022700D01*
X0152609Y0022045D01*
X0153819Y0020836D01*
X0154474Y0019255D01*
X0154474Y0011545D01*
X0153819Y0009964D01*
X0153445Y0009590D01*
X0154536Y0009590D01*
X0154536Y0080066D01*
X0152975Y0080066D01*
X0153458Y0079584D01*
X0154112Y0078003D01*
X0154112Y0070293D01*
X0153458Y0068712D01*
X0152248Y0067503D01*
X0150668Y0066848D01*
X0148957Y0066848D01*
X0147377Y0067503D01*
X0146167Y0068712D01*
X0145512Y0070293D01*
X0145512Y0078003D01*
X0146167Y0079584D01*
X0146650Y0080066D01*
X0142975Y0080066D01*
X0143458Y0079584D01*
X0144112Y0078003D01*
X0144112Y0070293D01*
X0143458Y0068712D01*
X0142248Y0067503D01*
X0140668Y0066848D01*
X0138957Y0066848D01*
X0138112Y0067198D01*
X0138112Y0052486D01*
X0137610Y0051273D01*
X0136682Y0050345D01*
X0131782Y0045445D01*
X0131782Y0042424D01*
X0132782Y0041424D01*
X0132782Y0037862D01*
X0130263Y0035343D01*
X0126701Y0035343D01*
X0124182Y0037862D01*
X0124182Y0041424D01*
X0125182Y0042424D01*
X0125182Y0047468D01*
X0125684Y0048681D01*
X0127836Y0050832D01*
X0126991Y0051182D01*
X0125781Y0052392D01*
X0125127Y0053972D01*
X0125127Y0061683D01*
X0125781Y0063263D01*
X0126991Y0064473D01*
X0128571Y0065128D01*
X0130282Y0065128D01*
X0131512Y0064618D01*
X0131512Y0067198D01*
X0130668Y0066848D01*
X0128957Y0066848D01*
X0127377Y0067503D01*
X0126167Y0068712D01*
X0125512Y0070293D01*
X0125512Y0078003D01*
X0126167Y0079584D01*
X0126650Y0080066D01*
X0122975Y0080066D01*
X0123458Y0079584D01*
X0124112Y0078003D01*
X0124112Y0070293D01*
X0123458Y0068712D01*
X0122248Y0067503D01*
X0120668Y0066848D01*
X0118957Y0066848D01*
X0117727Y0067358D01*
X0117727Y0064787D01*
X0117776Y0064813D01*
X0118420Y0065022D01*
X0119088Y0065128D01*
X0119127Y0065128D01*
X0119127Y0058128D01*
X0119727Y0058128D01*
X0119727Y0065128D01*
X0119765Y0065128D01*
X0120434Y0065022D01*
X0121077Y0064813D01*
X0121680Y0064505D01*
X0122228Y0064108D01*
X0122706Y0063629D01*
X0123104Y0063081D01*
X0123412Y0062478D01*
X0123621Y0061835D01*
X0123727Y0061166D01*
X0123727Y0058128D01*
X0119727Y0058128D01*
X0119727Y0057528D01*
X0123727Y0057528D01*
X0123727Y0054489D01*
X0123621Y0053821D01*
X0123412Y0053177D01*
X0123104Y0052574D01*
X0122706Y0052026D01*
X0122228Y0051548D01*
X0121680Y0051150D01*
X0121077Y0050843D01*
X0121024Y0050826D01*
X0121280Y0050570D01*
X0121782Y0049358D01*
X0121782Y0042424D01*
X0122782Y0041424D01*
X0122782Y0037862D01*
X0120263Y0035343D01*
X0116701Y0035343D01*
X0114182Y0037862D01*
X0114182Y0041424D01*
X0115182Y0042424D01*
X0115182Y0047334D01*
X0112557Y0049959D01*
X0111629Y0050887D01*
X0111559Y0051057D01*
X0110282Y0050528D01*
X0108571Y0050528D01*
X0107866Y0050820D01*
X0107866Y0049275D01*
X0108355Y0048095D01*
X0108355Y0046588D01*
X0115182Y0046588D01*
X0115182Y0047186D02*
X0108355Y0047186D01*
X0108355Y0046588D02*
X0107778Y0045195D01*
X0106712Y0044129D01*
X0105320Y0043552D01*
X0103812Y0043552D01*
X0102420Y0044129D01*
X0101354Y0045195D01*
X0100777Y0046588D01*
X0046362Y0046588D01*
X0046087Y0046862D02*
X0044874Y0047365D01*
X0033676Y0047365D01*
X0032676Y0048365D01*
X0029114Y0048365D01*
X0026595Y0045846D01*
X0026595Y0042284D01*
X0029114Y0039765D01*
X0032676Y0039765D01*
X0033676Y0040765D01*
X0042851Y0040765D01*
X0043195Y0040421D01*
X0043195Y0039573D01*
X0043895Y0037882D01*
X0045189Y0036588D01*
X0046880Y0035888D01*
X0048710Y0035888D01*
X0050401Y0036588D01*
X0051695Y0037882D01*
X0052395Y0039573D01*
X0052395Y0041403D01*
X0051695Y0043094D01*
X0050401Y0044388D01*
X0048710Y0045088D01*
X0047862Y0045088D01*
X0046087Y0046862D01*
X0045306Y0047186D02*
X0100777Y0047186D01*
X0100777Y0046588D02*
X0100777Y0048095D01*
X0101266Y0049275D01*
X0101266Y0050935D01*
X0100282Y0050528D01*
X0098571Y0050528D01*
X0096991Y0051182D01*
X0095781Y0052392D01*
X0095127Y0053972D01*
X0095127Y0061683D01*
X0095781Y0063263D01*
X0096991Y0064473D01*
X0098571Y0065128D01*
X0100282Y0065128D01*
X0101266Y0064720D01*
X0101266Y0067096D01*
X0100668Y0066848D01*
X0098957Y0066848D01*
X0097377Y0067503D01*
X0096167Y0068712D01*
X0095512Y0070293D01*
X0095512Y0078003D01*
X0096167Y0079584D01*
X0096650Y0080066D01*
X0092975Y0080066D01*
X0093458Y0079584D01*
X0094112Y0078003D01*
X0094112Y0070293D01*
X0093458Y0068712D01*
X0092248Y0067503D01*
X0090668Y0066848D01*
X0088957Y0066848D01*
X0087377Y0067503D01*
X0086167Y0068712D01*
X0085512Y0070293D01*
X0085512Y0078003D01*
X0086167Y0079584D01*
X0086650Y0080066D01*
X0082975Y0080066D01*
X0083458Y0079584D01*
X0084112Y0078003D01*
X0084112Y0070293D01*
X0083458Y0068712D01*
X0082248Y0067503D01*
X0080668Y0066848D01*
X0078957Y0066848D01*
X0077377Y0067503D01*
X0076167Y0068712D01*
X0075512Y0070293D01*
X0075512Y0078003D01*
X0076167Y0079584D01*
X0076650Y0080066D01*
X0072975Y0080066D01*
X0073458Y0079584D01*
X0074112Y0078003D01*
X0074112Y0070293D01*
X0073458Y0068712D01*
X0072248Y0067503D01*
X0070668Y0066848D01*
X0068957Y0066848D01*
X0067377Y0067503D01*
X0066167Y0068712D01*
X0065512Y0070293D01*
X0065512Y0078003D01*
X0066167Y0079584D01*
X0066650Y0080066D01*
X0062975Y0080066D01*
X0063458Y0079584D01*
X0064112Y0078003D01*
X0064112Y0070293D01*
X0063458Y0068712D01*
X0062248Y0067503D01*
X0060668Y0066848D01*
X0058957Y0066848D01*
X0057680Y0067377D01*
X0057610Y0067208D01*
X0056682Y0066279D01*
X0054681Y0064279D01*
X0054681Y0064279D01*
X0053753Y0063350D01*
X0053141Y0063097D01*
X0053727Y0061683D01*
X0053727Y0053972D01*
X0053072Y0052392D01*
X0051862Y0051182D01*
X0050282Y0050528D01*
X0048571Y0050528D01*
X0046991Y0051182D01*
X0045781Y0052392D01*
X0045127Y0053972D01*
X0045127Y0058861D01*
X0043727Y0057461D01*
X0043727Y0053972D01*
X0043072Y0052392D01*
X0041862Y0051182D01*
X0040282Y0050528D01*
X0038571Y0050528D01*
X0036991Y0051182D01*
X0035781Y0052392D01*
X0035127Y0053972D01*
X0035127Y0061683D01*
X0035781Y0063263D01*
X0036991Y0064473D01*
X0038571Y0065128D01*
X0040282Y0065128D01*
X0041539Y0064607D01*
X0041579Y0064647D01*
X0041629Y0064768D01*
X0044878Y0068017D01*
X0045806Y0068946D01*
X0046032Y0069039D01*
X0045512Y0070293D01*
X0045512Y0078003D01*
X0046167Y0079584D01*
X0046650Y0080066D01*
X0042975Y0080066D01*
X0043458Y0079584D01*
X0044112Y0078003D01*
X0044112Y0070293D01*
X0043458Y0068712D01*
X0042248Y0067503D01*
X0040668Y0066848D01*
X0038957Y0066848D01*
X0037377Y0067503D01*
X0036167Y0068712D01*
X0035512Y0070293D01*
X0035512Y0078003D01*
X0036167Y0079584D01*
X0036650Y0080066D01*
X0032975Y0080066D01*
X0033458Y0079584D01*
X0034112Y0078003D01*
X0034112Y0070293D01*
X0033458Y0068712D01*
X0032248Y0067503D01*
X0030668Y0066848D01*
X0028957Y0066848D01*
X0027377Y0067503D01*
X0026167Y0068712D01*
X0025512Y0070293D01*
X0025512Y0078003D01*
X0026167Y0079584D01*
X0026650Y0080066D01*
X0022975Y0080066D01*
X0023458Y0079584D01*
X0024112Y0078003D01*
X0024112Y0070293D01*
X0023458Y0068712D01*
X0022248Y0067503D01*
X0020668Y0066848D01*
X0018957Y0066848D01*
X0017377Y0067503D01*
X0016167Y0068712D01*
X0015512Y0070293D01*
X0015512Y0078003D01*
X0016167Y0079584D01*
X0016650Y0080066D01*
X0012975Y0080066D01*
X0013458Y0079584D01*
X0014112Y0078003D01*
X0014112Y0070293D01*
X0013458Y0068712D01*
X0012248Y0067503D01*
X0010668Y0066848D01*
X0008957Y0066848D01*
X0007377Y0067503D01*
X0006167Y0068712D01*
X0005656Y0069945D01*
X0005656Y0069930D02*
X0005663Y0069930D01*
X0005656Y0069331D02*
X0005911Y0069331D01*
X0006159Y0068733D02*
X0005656Y0068733D01*
X0005656Y0068134D02*
X0006745Y0068134D01*
X0007344Y0067536D02*
X0005656Y0067536D01*
X0005656Y0066937D02*
X0008742Y0066937D01*
X0010883Y0066937D02*
X0018742Y0066937D01*
X0017344Y0067536D02*
X0012281Y0067536D01*
X0012880Y0068134D02*
X0016745Y0068134D01*
X0016159Y0068733D02*
X0013466Y0068733D01*
X0013714Y0069331D02*
X0015911Y0069331D01*
X0015663Y0069930D02*
X0013962Y0069930D01*
X0014112Y0070528D02*
X0015512Y0070528D01*
X0015512Y0071127D02*
X0014112Y0071127D01*
X0014112Y0071725D02*
X0015512Y0071725D01*
X0015512Y0072324D02*
X0014112Y0072324D01*
X0014112Y0072922D02*
X0015512Y0072922D01*
X0015512Y0073521D02*
X0014112Y0073521D01*
X0014112Y0074119D02*
X0015512Y0074119D01*
X0015512Y0074718D02*
X0014112Y0074718D01*
X0014112Y0075316D02*
X0015512Y0075316D01*
X0015512Y0075915D02*
X0014112Y0075915D01*
X0014112Y0076513D02*
X0015512Y0076513D01*
X0015512Y0077112D02*
X0014112Y0077112D01*
X0014112Y0077710D02*
X0015512Y0077710D01*
X0015639Y0078309D02*
X0013986Y0078309D01*
X0013738Y0078907D02*
X0015887Y0078907D01*
X0016135Y0079506D02*
X0013490Y0079506D01*
X0023490Y0079506D02*
X0026135Y0079506D01*
X0025887Y0078907D02*
X0023738Y0078907D01*
X0023986Y0078309D02*
X0025639Y0078309D01*
X0025512Y0077710D02*
X0024112Y0077710D01*
X0024112Y0077112D02*
X0025512Y0077112D01*
X0025512Y0076513D02*
X0024112Y0076513D01*
X0024112Y0075915D02*
X0025512Y0075915D01*
X0025512Y0075316D02*
X0024112Y0075316D01*
X0024112Y0074718D02*
X0025512Y0074718D01*
X0025512Y0074119D02*
X0024112Y0074119D01*
X0024112Y0073521D02*
X0025512Y0073521D01*
X0025512Y0072922D02*
X0024112Y0072922D01*
X0024112Y0072324D02*
X0025512Y0072324D01*
X0025512Y0071725D02*
X0024112Y0071725D01*
X0024112Y0071127D02*
X0025512Y0071127D01*
X0025512Y0070528D02*
X0024112Y0070528D01*
X0023962Y0069930D02*
X0025663Y0069930D01*
X0025911Y0069331D02*
X0023714Y0069331D01*
X0023466Y0068733D02*
X0026159Y0068733D01*
X0026745Y0068134D02*
X0022880Y0068134D01*
X0022281Y0067536D02*
X0027344Y0067536D01*
X0028742Y0066937D02*
X0020883Y0066937D01*
X0020282Y0065128D02*
X0018571Y0065128D01*
X0016991Y0064473D01*
X0015781Y0063263D01*
X0015127Y0061683D01*
X0015127Y0053972D01*
X0015781Y0052392D01*
X0016991Y0051182D01*
X0018571Y0050528D01*
X0020282Y0050528D01*
X0021862Y0051182D01*
X0023072Y0052392D01*
X0023727Y0053972D01*
X0023727Y0061683D01*
X0023072Y0063263D01*
X0021862Y0064473D01*
X0020282Y0065128D01*
X0021693Y0064543D02*
X0027247Y0064543D01*
X0027173Y0064505D02*
X0026625Y0064108D01*
X0026147Y0063629D01*
X0025749Y0063081D01*
X0025442Y0062478D01*
X0025232Y0061835D01*
X0025127Y0061166D01*
X0025127Y0058128D01*
X0029127Y0058128D01*
X0029127Y0065128D01*
X0029088Y0065128D01*
X0028420Y0065022D01*
X0027776Y0064813D01*
X0027173Y0064505D01*
X0026462Y0063945D02*
X0022391Y0063945D01*
X0022989Y0063346D02*
X0025941Y0063346D01*
X0025579Y0062748D02*
X0023286Y0062748D01*
X0023534Y0062149D02*
X0025335Y0062149D01*
X0025188Y0061551D02*
X0023727Y0061551D01*
X0023727Y0060952D02*
X0025127Y0060952D01*
X0025127Y0060354D02*
X0023727Y0060354D01*
X0023727Y0059755D02*
X0025127Y0059755D01*
X0025127Y0059157D02*
X0023727Y0059157D01*
X0023727Y0058558D02*
X0025127Y0058558D01*
X0025127Y0057528D02*
X0025127Y0054489D01*
X0025232Y0053821D01*
X0025442Y0053177D01*
X0025749Y0052574D01*
X0026147Y0052026D01*
X0026625Y0051548D01*
X0027173Y0051150D01*
X0027776Y0050843D01*
X0028420Y0050634D01*
X0029088Y0050528D01*
X0029127Y0050528D01*
X0029127Y0057528D01*
X0029727Y0057528D01*
X0029727Y0058128D01*
X0033727Y0058128D01*
X0033727Y0061166D01*
X0033621Y0061835D01*
X0033412Y0062478D01*
X0033104Y0063081D01*
X0032706Y0063629D01*
X0032228Y0064108D01*
X0031680Y0064505D01*
X0031077Y0064813D01*
X0030434Y0065022D01*
X0029765Y0065128D01*
X0029727Y0065128D01*
X0029727Y0058128D01*
X0029127Y0058128D01*
X0029127Y0057528D01*
X0025127Y0057528D01*
X0025127Y0057361D02*
X0023727Y0057361D01*
X0023727Y0057959D02*
X0029127Y0057959D01*
X0029127Y0057361D02*
X0029727Y0057361D01*
X0029727Y0057528D02*
X0029727Y0050528D01*
X0029765Y0050528D01*
X0030434Y0050634D01*
X0031077Y0050843D01*
X0031680Y0051150D01*
X0032228Y0051548D01*
X0032706Y0052026D01*
X0033104Y0052574D01*
X0033412Y0053177D01*
X0033621Y0053821D01*
X0033727Y0054489D01*
X0033727Y0057528D01*
X0029727Y0057528D01*
X0029727Y0057959D02*
X0035127Y0057959D01*
X0035127Y0057361D02*
X0033727Y0057361D01*
X0033727Y0056762D02*
X0035127Y0056762D01*
X0035127Y0056164D02*
X0033727Y0056164D01*
X0033727Y0055565D02*
X0035127Y0055565D01*
X0035127Y0054967D02*
X0033727Y0054967D01*
X0033707Y0054368D02*
X0035127Y0054368D01*
X0035210Y0053770D02*
X0033604Y0053770D01*
X0033409Y0053171D02*
X0035458Y0053171D01*
X0035706Y0052573D02*
X0033104Y0052573D01*
X0032654Y0051974D02*
X0036199Y0051974D01*
X0036797Y0051376D02*
X0031991Y0051376D01*
X0030876Y0050777D02*
X0037968Y0050777D01*
X0040885Y0050777D02*
X0047968Y0050777D01*
X0046797Y0051376D02*
X0042056Y0051376D01*
X0042654Y0051974D02*
X0046199Y0051974D01*
X0045706Y0052573D02*
X0043147Y0052573D01*
X0043395Y0053171D02*
X0045458Y0053171D01*
X0045210Y0053770D02*
X0043643Y0053770D01*
X0043727Y0054368D02*
X0045127Y0054368D01*
X0045127Y0054967D02*
X0043727Y0054967D01*
X0043727Y0055565D02*
X0045127Y0055565D01*
X0045127Y0056164D02*
X0043727Y0056164D01*
X0043727Y0056762D02*
X0045127Y0056762D01*
X0045127Y0057361D02*
X0043727Y0057361D01*
X0044225Y0057959D02*
X0045127Y0057959D01*
X0045127Y0058558D02*
X0044824Y0058558D01*
X0035864Y0063346D02*
X0032912Y0063346D01*
X0033274Y0062748D02*
X0035568Y0062748D01*
X0035320Y0062149D02*
X0033519Y0062149D01*
X0033666Y0061551D02*
X0035127Y0061551D01*
X0035127Y0060952D02*
X0033727Y0060952D01*
X0033727Y0060354D02*
X0035127Y0060354D01*
X0035127Y0059755D02*
X0033727Y0059755D01*
X0033727Y0059157D02*
X0035127Y0059157D01*
X0035127Y0058558D02*
X0033727Y0058558D01*
X0029727Y0058558D02*
X0029127Y0058558D01*
X0029127Y0059157D02*
X0029727Y0059157D01*
X0029727Y0059755D02*
X0029127Y0059755D01*
X0029127Y0060354D02*
X0029727Y0060354D01*
X0029727Y0060952D02*
X0029127Y0060952D01*
X0029127Y0061551D02*
X0029727Y0061551D01*
X0029727Y0062149D02*
X0029127Y0062149D01*
X0029127Y0062748D02*
X0029727Y0062748D01*
X0029727Y0063346D02*
X0029127Y0063346D01*
X0029127Y0063945D02*
X0029727Y0063945D01*
X0029727Y0064543D02*
X0029127Y0064543D01*
X0031606Y0064543D02*
X0037160Y0064543D01*
X0036462Y0063945D02*
X0032391Y0063945D01*
X0030883Y0066937D02*
X0038742Y0066937D01*
X0037344Y0067536D02*
X0032281Y0067536D01*
X0032880Y0068134D02*
X0036745Y0068134D01*
X0036159Y0068733D02*
X0033466Y0068733D01*
X0033714Y0069331D02*
X0035911Y0069331D01*
X0035663Y0069930D02*
X0033962Y0069930D01*
X0034112Y0070528D02*
X0035512Y0070528D01*
X0035512Y0071127D02*
X0034112Y0071127D01*
X0034112Y0071725D02*
X0035512Y0071725D01*
X0035512Y0072324D02*
X0034112Y0072324D01*
X0034112Y0072922D02*
X0035512Y0072922D01*
X0035512Y0073521D02*
X0034112Y0073521D01*
X0034112Y0074119D02*
X0035512Y0074119D01*
X0035512Y0074718D02*
X0034112Y0074718D01*
X0034112Y0075316D02*
X0035512Y0075316D01*
X0035512Y0075915D02*
X0034112Y0075915D01*
X0034112Y0076513D02*
X0035512Y0076513D01*
X0035512Y0077112D02*
X0034112Y0077112D01*
X0034112Y0077710D02*
X0035512Y0077710D01*
X0035639Y0078309D02*
X0033986Y0078309D01*
X0033738Y0078907D02*
X0035887Y0078907D01*
X0036135Y0079506D02*
X0033490Y0079506D01*
X0043490Y0079506D02*
X0046135Y0079506D01*
X0045887Y0078907D02*
X0043738Y0078907D01*
X0043986Y0078309D02*
X0045639Y0078309D01*
X0045512Y0077710D02*
X0044112Y0077710D01*
X0044112Y0077112D02*
X0045512Y0077112D01*
X0045512Y0076513D02*
X0044112Y0076513D01*
X0044112Y0075915D02*
X0045512Y0075915D01*
X0045512Y0075316D02*
X0044112Y0075316D01*
X0044112Y0074718D02*
X0045512Y0074718D01*
X0045512Y0074119D02*
X0044112Y0074119D01*
X0044112Y0073521D02*
X0045512Y0073521D01*
X0045512Y0072922D02*
X0044112Y0072922D01*
X0044112Y0072324D02*
X0045512Y0072324D01*
X0045512Y0071725D02*
X0044112Y0071725D01*
X0044112Y0071127D02*
X0045512Y0071127D01*
X0045512Y0070528D02*
X0044112Y0070528D01*
X0043962Y0069930D02*
X0045663Y0069930D01*
X0045911Y0069331D02*
X0043714Y0069331D01*
X0043466Y0068733D02*
X0045594Y0068733D01*
X0044995Y0068134D02*
X0042880Y0068134D01*
X0042281Y0067536D02*
X0044397Y0067536D01*
X0043798Y0066937D02*
X0040883Y0066937D01*
X0042601Y0065740D02*
X0005656Y0065740D01*
X0005656Y0065142D02*
X0042003Y0065142D01*
X0043200Y0066339D02*
X0005656Y0066339D01*
X0005656Y0064543D02*
X0017160Y0064543D01*
X0016462Y0063945D02*
X0005656Y0063945D01*
X0005656Y0063346D02*
X0015864Y0063346D01*
X0015568Y0062748D02*
X0005656Y0062748D01*
X0005656Y0062149D02*
X0015320Y0062149D01*
X0015127Y0061551D02*
X0005656Y0061551D01*
X0005656Y0060952D02*
X0015127Y0060952D01*
X0015127Y0060354D02*
X0005656Y0060354D01*
X0005656Y0059755D02*
X0015127Y0059755D01*
X0015127Y0059157D02*
X0005656Y0059157D01*
X0005656Y0058558D02*
X0015127Y0058558D01*
X0015127Y0057959D02*
X0005656Y0057959D01*
X0005656Y0057361D02*
X0015127Y0057361D01*
X0015127Y0056762D02*
X0005656Y0056762D01*
X0005656Y0056164D02*
X0015127Y0056164D01*
X0015127Y0055565D02*
X0005656Y0055565D01*
X0005656Y0054967D02*
X0015127Y0054967D01*
X0015127Y0054368D02*
X0005656Y0054368D01*
X0005656Y0053770D02*
X0015210Y0053770D01*
X0015458Y0053171D02*
X0005656Y0053171D01*
X0005656Y0052573D02*
X0015706Y0052573D01*
X0016199Y0051974D02*
X0005656Y0051974D01*
X0005656Y0051376D02*
X0016797Y0051376D01*
X0017968Y0050777D02*
X0005656Y0050777D01*
X0005656Y0050179D02*
X0101266Y0050179D01*
X0101266Y0050777D02*
X0100885Y0050777D01*
X0101266Y0049580D02*
X0005656Y0049580D01*
X0005656Y0048982D02*
X0008878Y0048982D01*
X0008902Y0049006D02*
X0006383Y0046487D01*
X0006383Y0042925D01*
X0008902Y0040406D01*
X0012464Y0040406D01*
X0014983Y0042925D01*
X0014983Y0046487D01*
X0012464Y0049006D01*
X0008902Y0049006D01*
X0008280Y0048383D02*
X0005656Y0048383D01*
X0005656Y0047785D02*
X0007681Y0047785D01*
X0007083Y0047186D02*
X0005656Y0047186D01*
X0005656Y0046588D02*
X0006484Y0046588D01*
X0006383Y0045989D02*
X0005656Y0045989D01*
X0005656Y0045391D02*
X0006383Y0045391D01*
X0006383Y0044792D02*
X0005656Y0044792D01*
X0005656Y0044194D02*
X0006383Y0044194D01*
X0006383Y0043595D02*
X0005656Y0043595D01*
X0005656Y0042997D02*
X0006383Y0042997D01*
X0006910Y0042398D02*
X0005656Y0042398D01*
X0005656Y0041800D02*
X0007508Y0041800D01*
X0008107Y0041201D02*
X0005656Y0041201D01*
X0005656Y0040603D02*
X0008705Y0040603D01*
X0008902Y0039006D02*
X0006383Y0036487D01*
X0006383Y0032925D01*
X0008902Y0030406D01*
X0012464Y0030406D01*
X0014983Y0032925D01*
X0014983Y0036487D01*
X0012464Y0039006D01*
X0008902Y0039006D01*
X0008704Y0038807D02*
X0005656Y0038807D01*
X0005656Y0038209D02*
X0008105Y0038209D01*
X0007507Y0037610D02*
X0005656Y0037610D01*
X0005656Y0037012D02*
X0006908Y0037012D01*
X0006383Y0036413D02*
X0005656Y0036413D01*
X0005656Y0035815D02*
X0006383Y0035815D01*
X0006383Y0035216D02*
X0005656Y0035216D01*
X0005656Y0034618D02*
X0006383Y0034618D01*
X0006383Y0034019D02*
X0005656Y0034019D01*
X0005656Y0033421D02*
X0006383Y0033421D01*
X0006486Y0032822D02*
X0005656Y0032822D01*
X0005656Y0032224D02*
X0007085Y0032224D01*
X0007683Y0031625D02*
X0005656Y0031625D01*
X0005656Y0031026D02*
X0008282Y0031026D01*
X0008880Y0030428D02*
X0005656Y0030428D01*
X0005656Y0029829D02*
X0061531Y0029829D01*
X0062129Y0029231D02*
X0005656Y0029231D01*
X0005656Y0028632D02*
X0062728Y0028632D01*
X0063326Y0028034D02*
X0005656Y0028034D01*
X0005656Y0027435D02*
X0063925Y0027435D01*
X0063587Y0027774D02*
X0064515Y0026845D01*
X0065728Y0026343D01*
X0105701Y0026343D01*
X0106701Y0025343D01*
X0110263Y0025343D01*
X0112782Y0027862D01*
X0112782Y0031424D01*
X0110263Y0033943D01*
X0106701Y0033943D01*
X0105701Y0032943D01*
X0067751Y0032943D01*
X0063694Y0037001D01*
X0063205Y0038181D01*
X0062139Y0039247D01*
X0060746Y0039824D01*
X0059239Y0039824D01*
X0057846Y0039247D01*
X0056780Y0038181D01*
X0056204Y0036788D01*
X0056204Y0035281D01*
X0056780Y0033888D01*
X0057846Y0032823D01*
X0059027Y0032334D01*
X0063587Y0027774D01*
X0063587Y0027774D01*
X0064535Y0026837D02*
X0005656Y0026837D01*
X0005656Y0026238D02*
X0105805Y0026238D01*
X0106404Y0025640D02*
X0005656Y0025640D01*
X0005656Y0025041D02*
X0110743Y0025041D01*
X0110560Y0025640D02*
X0110991Y0025640D01*
X0111159Y0026238D02*
X0111577Y0026238D01*
X0111757Y0026837D02*
X0112331Y0026837D01*
X0112356Y0027435D02*
X0114608Y0027435D01*
X0114182Y0028034D02*
X0112782Y0028034D01*
X0112782Y0028632D02*
X0114182Y0028632D01*
X0114182Y0029231D02*
X0112782Y0029231D01*
X0112782Y0029829D02*
X0114182Y0029829D01*
X0114182Y0030428D02*
X0112782Y0030428D01*
X0112782Y0031026D02*
X0114182Y0031026D01*
X0114383Y0031625D02*
X0112581Y0031625D01*
X0111982Y0032224D02*
X0114982Y0032224D01*
X0115580Y0032822D02*
X0111384Y0032822D01*
X0110785Y0033421D02*
X0116179Y0033421D01*
X0116229Y0035815D02*
X0110735Y0035815D01*
X0110263Y0035343D02*
X0112782Y0037862D01*
X0112782Y0041424D01*
X0110263Y0043943D01*
X0106701Y0043943D01*
X0104182Y0041424D01*
X0104182Y0037862D01*
X0106701Y0035343D01*
X0110263Y0035343D01*
X0111333Y0036413D02*
X0115631Y0036413D01*
X0115032Y0037012D02*
X0111932Y0037012D01*
X0112530Y0037610D02*
X0114434Y0037610D01*
X0114182Y0038209D02*
X0112782Y0038209D01*
X0112782Y0038807D02*
X0114182Y0038807D01*
X0114182Y0039406D02*
X0112782Y0039406D01*
X0112782Y0040004D02*
X0114182Y0040004D01*
X0114182Y0040603D02*
X0112782Y0040603D01*
X0112782Y0041201D02*
X0114182Y0041201D01*
X0114558Y0041800D02*
X0112406Y0041800D01*
X0111808Y0042398D02*
X0115156Y0042398D01*
X0115182Y0042997D02*
X0111209Y0042997D01*
X0110611Y0043595D02*
X0115182Y0043595D01*
X0115182Y0044194D02*
X0106777Y0044194D01*
X0106353Y0043595D02*
X0105423Y0043595D01*
X0105755Y0042997D02*
X0091658Y0042997D01*
X0091729Y0042899D02*
X0091304Y0043485D01*
X0090792Y0043997D01*
X0090206Y0044422D01*
X0089561Y0044751D01*
X0088872Y0044975D01*
X0088157Y0045088D01*
X0088095Y0045088D01*
X0088095Y0040788D01*
X0087495Y0040788D01*
X0087495Y0045088D01*
X0087433Y0045088D01*
X0086718Y0044975D01*
X0086029Y0044751D01*
X0085384Y0044422D01*
X0084798Y0043997D01*
X0084286Y0043485D01*
X0083861Y0042899D01*
X0083532Y0042254D01*
X0083308Y0041565D01*
X0083195Y0040850D01*
X0083195Y0040788D01*
X0087495Y0040788D01*
X0087495Y0040188D01*
X0083195Y0040188D01*
X0083195Y0040126D01*
X0083308Y0039411D01*
X0083532Y0038722D01*
X0083861Y0038077D01*
X0084286Y0037491D01*
X0084798Y0036979D01*
X0085384Y0036554D01*
X0086029Y0036225D01*
X0086718Y0036001D01*
X0087433Y0035888D01*
X0087495Y0035888D01*
X0087495Y0040188D01*
X0088095Y0040188D01*
X0088095Y0040788D01*
X0092395Y0040788D01*
X0092395Y0040850D01*
X0092282Y0041565D01*
X0092058Y0042254D01*
X0091729Y0042899D01*
X0091984Y0042398D02*
X0105156Y0042398D01*
X0104558Y0041800D02*
X0092206Y0041800D01*
X0092339Y0041201D02*
X0104182Y0041201D01*
X0104182Y0040603D02*
X0088095Y0040603D01*
X0088095Y0040188D02*
X0092395Y0040188D01*
X0092395Y0040126D01*
X0092282Y0039411D01*
X0092058Y0038722D01*
X0091729Y0038077D01*
X0091304Y0037491D01*
X0090792Y0036979D01*
X0090206Y0036554D01*
X0089561Y0036225D01*
X0088872Y0036001D01*
X0088157Y0035888D01*
X0088095Y0035888D01*
X0088095Y0040188D01*
X0088095Y0040004D02*
X0087495Y0040004D01*
X0087495Y0039406D02*
X0088095Y0039406D01*
X0088095Y0038807D02*
X0087495Y0038807D01*
X0087495Y0038209D02*
X0088095Y0038209D01*
X0088095Y0037610D02*
X0087495Y0037610D01*
X0087495Y0037012D02*
X0088095Y0037012D01*
X0088095Y0036413D02*
X0087495Y0036413D01*
X0085660Y0036413D02*
X0064281Y0036413D01*
X0063689Y0037012D02*
X0084766Y0037012D01*
X0084200Y0037610D02*
X0063441Y0037610D01*
X0063177Y0038209D02*
X0083794Y0038209D01*
X0083504Y0038807D02*
X0062579Y0038807D01*
X0061755Y0039406D02*
X0083310Y0039406D01*
X0083214Y0040004D02*
X0052395Y0040004D01*
X0052395Y0040603D02*
X0087495Y0040603D01*
X0087495Y0041201D02*
X0088095Y0041201D01*
X0088095Y0041800D02*
X0087495Y0041800D01*
X0087495Y0042398D02*
X0088095Y0042398D01*
X0088095Y0042997D02*
X0087495Y0042997D01*
X0087495Y0043595D02*
X0088095Y0043595D01*
X0088095Y0044194D02*
X0087495Y0044194D01*
X0087495Y0044792D02*
X0088095Y0044792D01*
X0089433Y0044792D02*
X0101757Y0044792D01*
X0101273Y0045391D02*
X0047559Y0045391D01*
X0046961Y0045989D02*
X0101025Y0045989D01*
X0100777Y0047785D02*
X0033256Y0047785D01*
X0029727Y0050777D02*
X0029127Y0050777D01*
X0029127Y0051376D02*
X0029727Y0051376D01*
X0029727Y0051974D02*
X0029127Y0051974D01*
X0029127Y0052573D02*
X0029727Y0052573D01*
X0029727Y0053171D02*
X0029127Y0053171D01*
X0029127Y0053770D02*
X0029727Y0053770D01*
X0029727Y0054368D02*
X0029127Y0054368D01*
X0029127Y0054967D02*
X0029727Y0054967D01*
X0029727Y0055565D02*
X0029127Y0055565D01*
X0029127Y0056164D02*
X0029727Y0056164D01*
X0029727Y0056762D02*
X0029127Y0056762D01*
X0025127Y0056762D02*
X0023727Y0056762D01*
X0023727Y0056164D02*
X0025127Y0056164D01*
X0025127Y0055565D02*
X0023727Y0055565D01*
X0023727Y0054967D02*
X0025127Y0054967D01*
X0025146Y0054368D02*
X0023727Y0054368D01*
X0023643Y0053770D02*
X0025249Y0053770D01*
X0025445Y0053171D02*
X0023395Y0053171D01*
X0023147Y0052573D02*
X0025750Y0052573D01*
X0026199Y0051974D02*
X0022654Y0051974D01*
X0022056Y0051376D02*
X0026862Y0051376D01*
X0027977Y0050777D02*
X0020885Y0050777D01*
X0022464Y0049006D02*
X0018902Y0049006D01*
X0016383Y0046487D01*
X0016383Y0042925D01*
X0018902Y0040406D01*
X0022464Y0040406D01*
X0024983Y0042925D01*
X0024983Y0046487D01*
X0022464Y0049006D01*
X0022488Y0048982D02*
X0101144Y0048982D01*
X0100897Y0048383D02*
X0023087Y0048383D01*
X0023685Y0047785D02*
X0028534Y0047785D01*
X0027935Y0047186D02*
X0024284Y0047186D01*
X0024882Y0046588D02*
X0027337Y0046588D01*
X0026738Y0045989D02*
X0024983Y0045989D01*
X0024983Y0045391D02*
X0026595Y0045391D01*
X0026595Y0044792D02*
X0024983Y0044792D01*
X0024983Y0044194D02*
X0026595Y0044194D01*
X0026595Y0043595D02*
X0024983Y0043595D01*
X0024983Y0042997D02*
X0026595Y0042997D01*
X0026595Y0042398D02*
X0024457Y0042398D01*
X0023858Y0041800D02*
X0027079Y0041800D01*
X0027678Y0041201D02*
X0023260Y0041201D01*
X0022661Y0040603D02*
X0028276Y0040603D01*
X0028875Y0040004D02*
X0005656Y0040004D01*
X0005656Y0039406D02*
X0036480Y0039406D01*
X0036615Y0039540D02*
X0034096Y0037022D01*
X0034096Y0033459D01*
X0036615Y0030940D01*
X0040177Y0030940D01*
X0042696Y0033459D01*
X0042696Y0037022D01*
X0040177Y0039540D01*
X0036615Y0039540D01*
X0035881Y0038807D02*
X0022663Y0038807D01*
X0022464Y0039006D02*
X0018902Y0039006D01*
X0016383Y0036487D01*
X0016383Y0032925D01*
X0018902Y0030406D01*
X0022464Y0030406D01*
X0024983Y0032925D01*
X0024983Y0036487D01*
X0022464Y0039006D01*
X0023262Y0038209D02*
X0035283Y0038209D01*
X0034684Y0037610D02*
X0023860Y0037610D01*
X0024459Y0037012D02*
X0034096Y0037012D01*
X0034096Y0036413D02*
X0024983Y0036413D01*
X0024983Y0035815D02*
X0034096Y0035815D01*
X0034096Y0035216D02*
X0024983Y0035216D01*
X0024983Y0034618D02*
X0034096Y0034618D01*
X0034096Y0034019D02*
X0024983Y0034019D01*
X0024983Y0033421D02*
X0034135Y0033421D01*
X0034733Y0032822D02*
X0024881Y0032822D01*
X0024282Y0032224D02*
X0035332Y0032224D01*
X0035930Y0031625D02*
X0023684Y0031625D01*
X0023085Y0031026D02*
X0036529Y0031026D01*
X0040263Y0031026D02*
X0060334Y0031026D01*
X0060932Y0030428D02*
X0022487Y0030428D01*
X0018880Y0030428D02*
X0012487Y0030428D01*
X0013085Y0031026D02*
X0018282Y0031026D01*
X0017683Y0031625D02*
X0013684Y0031625D01*
X0014282Y0032224D02*
X0017085Y0032224D01*
X0016486Y0032822D02*
X0014881Y0032822D01*
X0014983Y0033421D02*
X0016383Y0033421D01*
X0016383Y0034019D02*
X0014983Y0034019D01*
X0014983Y0034618D02*
X0016383Y0034618D01*
X0016383Y0035216D02*
X0014983Y0035216D01*
X0014983Y0035815D02*
X0016383Y0035815D01*
X0016383Y0036413D02*
X0014983Y0036413D01*
X0014459Y0037012D02*
X0016908Y0037012D01*
X0017507Y0037610D02*
X0013860Y0037610D01*
X0013262Y0038209D02*
X0018105Y0038209D01*
X0018704Y0038807D02*
X0012663Y0038807D01*
X0012661Y0040603D02*
X0018705Y0040603D01*
X0018107Y0041201D02*
X0013260Y0041201D01*
X0013858Y0041800D02*
X0017508Y0041800D01*
X0016910Y0042398D02*
X0014457Y0042398D01*
X0014983Y0042997D02*
X0016383Y0042997D01*
X0016383Y0043595D02*
X0014983Y0043595D01*
X0014983Y0044194D02*
X0016383Y0044194D01*
X0016383Y0044792D02*
X0014983Y0044792D01*
X0014983Y0045391D02*
X0016383Y0045391D01*
X0016383Y0045989D02*
X0014983Y0045989D01*
X0014882Y0046588D02*
X0016484Y0046588D01*
X0017083Y0047186D02*
X0014284Y0047186D01*
X0013685Y0047785D02*
X0017681Y0047785D01*
X0018280Y0048383D02*
X0013087Y0048383D01*
X0012488Y0048982D02*
X0018878Y0048982D01*
X0033514Y0040603D02*
X0043013Y0040603D01*
X0043195Y0040004D02*
X0032916Y0040004D01*
X0040312Y0039406D02*
X0043264Y0039406D01*
X0043512Y0038807D02*
X0040910Y0038807D01*
X0041509Y0038209D02*
X0043760Y0038209D01*
X0044167Y0037610D02*
X0042107Y0037610D01*
X0042696Y0037012D02*
X0044766Y0037012D01*
X0045612Y0036413D02*
X0042696Y0036413D01*
X0042696Y0035815D02*
X0056204Y0035815D01*
X0056204Y0036413D02*
X0049978Y0036413D01*
X0050824Y0037012D02*
X0056296Y0037012D01*
X0056544Y0037610D02*
X0051423Y0037610D01*
X0051830Y0038209D02*
X0056808Y0038209D01*
X0057406Y0038807D02*
X0052078Y0038807D01*
X0052326Y0039406D02*
X0058230Y0039406D01*
X0052395Y0041201D02*
X0083251Y0041201D01*
X0083385Y0041800D02*
X0052231Y0041800D01*
X0051983Y0042398D02*
X0083606Y0042398D01*
X0083932Y0042997D02*
X0051735Y0042997D01*
X0051193Y0043595D02*
X0084397Y0043595D01*
X0085070Y0044194D02*
X0050595Y0044194D01*
X0049424Y0044792D02*
X0086157Y0044792D01*
X0090520Y0044194D02*
X0102355Y0044194D01*
X0103709Y0043595D02*
X0091193Y0043595D01*
X0092376Y0040004D02*
X0104182Y0040004D01*
X0104182Y0039406D02*
X0092280Y0039406D01*
X0092086Y0038807D02*
X0104182Y0038807D01*
X0104182Y0038209D02*
X0091796Y0038209D01*
X0091390Y0037610D02*
X0104434Y0037610D01*
X0105032Y0037012D02*
X0090824Y0037012D01*
X0089930Y0036413D02*
X0105631Y0036413D01*
X0106229Y0035815D02*
X0064880Y0035815D01*
X0065478Y0035216D02*
X0154536Y0035216D01*
X0154536Y0034618D02*
X0066077Y0034618D01*
X0066675Y0034019D02*
X0154536Y0034019D01*
X0154536Y0033421D02*
X0140785Y0033421D01*
X0140263Y0033943D02*
X0136701Y0033943D01*
X0134182Y0031424D01*
X0134182Y0027862D01*
X0136701Y0025343D01*
X0140263Y0025343D01*
X0142782Y0027862D01*
X0142782Y0031424D01*
X0140263Y0033943D01*
X0141384Y0032822D02*
X0154536Y0032822D01*
X0154536Y0032224D02*
X0141982Y0032224D01*
X0142581Y0031625D02*
X0154536Y0031625D01*
X0154536Y0031026D02*
X0142782Y0031026D01*
X0142782Y0030428D02*
X0154536Y0030428D01*
X0154536Y0029829D02*
X0142782Y0029829D01*
X0142782Y0029231D02*
X0154536Y0029231D01*
X0154536Y0028632D02*
X0142782Y0028632D01*
X0142782Y0028034D02*
X0154536Y0028034D01*
X0154536Y0027435D02*
X0142356Y0027435D01*
X0141757Y0026837D02*
X0154536Y0026837D01*
X0154536Y0026238D02*
X0141159Y0026238D01*
X0140560Y0025640D02*
X0154536Y0025640D01*
X0154536Y0025041D02*
X0135270Y0025041D01*
X0135869Y0024443D02*
X0154536Y0024443D01*
X0154536Y0023844D02*
X0136467Y0023844D01*
X0137066Y0023246D02*
X0154536Y0023246D01*
X0154536Y0022647D02*
X0151156Y0022647D01*
X0152601Y0022049D02*
X0154536Y0022049D01*
X0154536Y0021450D02*
X0153204Y0021450D01*
X0153803Y0020852D02*
X0154536Y0020852D01*
X0154536Y0020253D02*
X0154060Y0020253D01*
X0154308Y0019655D02*
X0154536Y0019655D01*
X0154536Y0019056D02*
X0154474Y0019056D01*
X0154474Y0018458D02*
X0154536Y0018458D01*
X0154536Y0017859D02*
X0154474Y0017859D01*
X0154474Y0017261D02*
X0154536Y0017261D01*
X0154536Y0016662D02*
X0154474Y0016662D01*
X0154474Y0016064D02*
X0154536Y0016064D01*
X0154536Y0015465D02*
X0154474Y0015465D01*
X0154474Y0014867D02*
X0154536Y0014867D01*
X0154536Y0014268D02*
X0154474Y0014268D01*
X0154474Y0013670D02*
X0154536Y0013670D01*
X0154536Y0013071D02*
X0154474Y0013071D01*
X0154474Y0012473D02*
X0154536Y0012473D01*
X0154536Y0011874D02*
X0154474Y0011874D01*
X0154536Y0011276D02*
X0154362Y0011276D01*
X0154536Y0010677D02*
X0154114Y0010677D01*
X0153866Y0010079D02*
X0154536Y0010079D01*
X0146481Y0010079D02*
X0143866Y0010079D01*
X0144114Y0010677D02*
X0146233Y0010677D01*
X0145985Y0011276D02*
X0144362Y0011276D01*
X0144474Y0011874D02*
X0145874Y0011874D01*
X0145874Y0012473D02*
X0144474Y0012473D01*
X0144474Y0013071D02*
X0145874Y0013071D01*
X0145874Y0013670D02*
X0144474Y0013670D01*
X0144474Y0014268D02*
X0145874Y0014268D01*
X0145874Y0014867D02*
X0144474Y0014867D01*
X0144474Y0015465D02*
X0145874Y0015465D01*
X0145874Y0016064D02*
X0144474Y0016064D01*
X0144474Y0016662D02*
X0145874Y0016662D01*
X0145874Y0017261D02*
X0144474Y0017261D01*
X0144474Y0017859D02*
X0145874Y0017859D01*
X0145874Y0018458D02*
X0144474Y0018458D01*
X0144474Y0019056D02*
X0145874Y0019056D01*
X0146039Y0019655D02*
X0144308Y0019655D01*
X0144060Y0020253D02*
X0146287Y0020253D01*
X0146544Y0020852D02*
X0143803Y0020852D01*
X0143204Y0021450D02*
X0147143Y0021450D01*
X0147746Y0022049D02*
X0142601Y0022049D01*
X0141156Y0022647D02*
X0149191Y0022647D01*
X0139191Y0022647D02*
X0137664Y0022647D01*
X0136404Y0025640D02*
X0134672Y0025640D01*
X0134073Y0026238D02*
X0135805Y0026238D01*
X0135207Y0026837D02*
X0131757Y0026837D01*
X0132356Y0027435D02*
X0134608Y0027435D01*
X0134182Y0028034D02*
X0132782Y0028034D01*
X0132782Y0028632D02*
X0134182Y0028632D01*
X0134182Y0029231D02*
X0132782Y0029231D01*
X0132782Y0029829D02*
X0134182Y0029829D01*
X0134182Y0030428D02*
X0132782Y0030428D01*
X0132782Y0031026D02*
X0134182Y0031026D01*
X0134383Y0031625D02*
X0132581Y0031625D01*
X0131982Y0032224D02*
X0134982Y0032224D01*
X0135580Y0032822D02*
X0131384Y0032822D01*
X0130785Y0033421D02*
X0136179Y0033421D01*
X0136701Y0035343D02*
X0140263Y0035343D01*
X0142782Y0037862D01*
X0142782Y0041424D01*
X0140263Y0043943D01*
X0136701Y0043943D01*
X0134182Y0041424D01*
X0134182Y0037862D01*
X0136701Y0035343D01*
X0136229Y0035815D02*
X0130735Y0035815D01*
X0131333Y0036413D02*
X0135631Y0036413D01*
X0135032Y0037012D02*
X0131932Y0037012D01*
X0132530Y0037610D02*
X0134434Y0037610D01*
X0134182Y0038209D02*
X0132782Y0038209D01*
X0132782Y0038807D02*
X0134182Y0038807D01*
X0134182Y0039406D02*
X0132782Y0039406D01*
X0132782Y0040004D02*
X0134182Y0040004D01*
X0134182Y0040603D02*
X0132782Y0040603D01*
X0132782Y0041201D02*
X0134182Y0041201D01*
X0134558Y0041800D02*
X0132406Y0041800D01*
X0131808Y0042398D02*
X0135156Y0042398D01*
X0135755Y0042997D02*
X0131782Y0042997D01*
X0131782Y0043595D02*
X0136353Y0043595D01*
X0140611Y0043595D02*
X0154536Y0043595D01*
X0154536Y0042997D02*
X0141209Y0042997D01*
X0141808Y0042398D02*
X0154536Y0042398D01*
X0154536Y0041800D02*
X0142406Y0041800D01*
X0142782Y0041201D02*
X0154536Y0041201D01*
X0154536Y0040603D02*
X0142782Y0040603D01*
X0142782Y0040004D02*
X0154536Y0040004D01*
X0154536Y0039406D02*
X0142782Y0039406D01*
X0142782Y0038807D02*
X0154536Y0038807D01*
X0154536Y0038209D02*
X0142782Y0038209D01*
X0142530Y0037610D02*
X0154536Y0037610D01*
X0154536Y0037012D02*
X0141932Y0037012D01*
X0141333Y0036413D02*
X0154536Y0036413D01*
X0154536Y0035815D02*
X0140735Y0035815D01*
X0126229Y0035815D02*
X0120735Y0035815D01*
X0121333Y0036413D02*
X0125631Y0036413D01*
X0125032Y0037012D02*
X0121932Y0037012D01*
X0122530Y0037610D02*
X0124434Y0037610D01*
X0124182Y0038209D02*
X0122782Y0038209D01*
X0122782Y0038807D02*
X0124182Y0038807D01*
X0124182Y0039406D02*
X0122782Y0039406D01*
X0122782Y0040004D02*
X0124182Y0040004D01*
X0124182Y0040603D02*
X0122782Y0040603D01*
X0122782Y0041201D02*
X0124182Y0041201D01*
X0124558Y0041800D02*
X0122406Y0041800D01*
X0121808Y0042398D02*
X0125156Y0042398D01*
X0125182Y0042997D02*
X0121782Y0042997D01*
X0121782Y0043595D02*
X0125182Y0043595D01*
X0125182Y0044194D02*
X0121782Y0044194D01*
X0121782Y0044792D02*
X0125182Y0044792D01*
X0125182Y0045391D02*
X0121782Y0045391D01*
X0121782Y0045989D02*
X0125182Y0045989D01*
X0125182Y0046588D02*
X0121782Y0046588D01*
X0121782Y0047186D02*
X0125182Y0047186D01*
X0125313Y0047785D02*
X0121782Y0047785D01*
X0121782Y0048383D02*
X0125561Y0048383D01*
X0125985Y0048982D02*
X0121782Y0048982D01*
X0121690Y0049580D02*
X0126584Y0049580D01*
X0127182Y0050179D02*
X0121442Y0050179D01*
X0121073Y0050777D02*
X0127781Y0050777D01*
X0126797Y0051376D02*
X0121991Y0051376D01*
X0122654Y0051974D02*
X0126199Y0051974D01*
X0125706Y0052573D02*
X0123104Y0052573D01*
X0123409Y0053171D02*
X0125458Y0053171D01*
X0125210Y0053770D02*
X0123604Y0053770D01*
X0123707Y0054368D02*
X0125127Y0054368D01*
X0125127Y0054967D02*
X0123727Y0054967D01*
X0123727Y0055565D02*
X0125127Y0055565D01*
X0125127Y0056164D02*
X0123727Y0056164D01*
X0123727Y0056762D02*
X0125127Y0056762D01*
X0125127Y0057361D02*
X0123727Y0057361D01*
X0123727Y0058558D02*
X0125127Y0058558D01*
X0125127Y0057959D02*
X0119727Y0057959D01*
X0119727Y0058558D02*
X0119127Y0058558D01*
X0119127Y0059157D02*
X0119727Y0059157D01*
X0119727Y0059755D02*
X0119127Y0059755D01*
X0119127Y0060354D02*
X0119727Y0060354D01*
X0119727Y0060952D02*
X0119127Y0060952D01*
X0119127Y0061551D02*
X0119727Y0061551D01*
X0119727Y0062149D02*
X0119127Y0062149D01*
X0119127Y0062748D02*
X0119727Y0062748D01*
X0119727Y0063346D02*
X0119127Y0063346D01*
X0119127Y0063945D02*
X0119727Y0063945D01*
X0119727Y0064543D02*
X0119127Y0064543D01*
X0117727Y0065142D02*
X0131512Y0065142D01*
X0131512Y0065740D02*
X0117727Y0065740D01*
X0117727Y0066339D02*
X0131512Y0066339D01*
X0131512Y0066937D02*
X0130883Y0066937D01*
X0128742Y0066937D02*
X0120883Y0066937D01*
X0122281Y0067536D02*
X0127344Y0067536D01*
X0126745Y0068134D02*
X0122880Y0068134D01*
X0123466Y0068733D02*
X0126159Y0068733D01*
X0125911Y0069331D02*
X0123714Y0069331D01*
X0123962Y0069930D02*
X0125663Y0069930D01*
X0125512Y0070528D02*
X0124112Y0070528D01*
X0124112Y0071127D02*
X0125512Y0071127D01*
X0125512Y0071725D02*
X0124112Y0071725D01*
X0124112Y0072324D02*
X0125512Y0072324D01*
X0125512Y0072922D02*
X0124112Y0072922D01*
X0124112Y0073521D02*
X0125512Y0073521D01*
X0125512Y0074119D02*
X0124112Y0074119D01*
X0124112Y0074718D02*
X0125512Y0074718D01*
X0125512Y0075316D02*
X0124112Y0075316D01*
X0124112Y0075915D02*
X0125512Y0075915D01*
X0125512Y0076513D02*
X0124112Y0076513D01*
X0124112Y0077112D02*
X0125512Y0077112D01*
X0125512Y0077710D02*
X0124112Y0077710D01*
X0123986Y0078309D02*
X0125639Y0078309D01*
X0125887Y0078907D02*
X0123738Y0078907D01*
X0123490Y0079506D02*
X0126135Y0079506D01*
X0143490Y0079506D02*
X0146135Y0079506D01*
X0145887Y0078907D02*
X0143738Y0078907D01*
X0143986Y0078309D02*
X0145639Y0078309D01*
X0145512Y0077710D02*
X0144112Y0077710D01*
X0144112Y0077112D02*
X0145512Y0077112D01*
X0145512Y0076513D02*
X0144112Y0076513D01*
X0144112Y0075915D02*
X0145512Y0075915D01*
X0145512Y0075316D02*
X0144112Y0075316D01*
X0144112Y0074718D02*
X0145512Y0074718D01*
X0145512Y0074119D02*
X0144112Y0074119D01*
X0144112Y0073521D02*
X0145512Y0073521D01*
X0145512Y0072922D02*
X0144112Y0072922D01*
X0144112Y0072324D02*
X0145512Y0072324D01*
X0145512Y0071725D02*
X0144112Y0071725D01*
X0144112Y0071127D02*
X0145512Y0071127D01*
X0145512Y0070528D02*
X0144112Y0070528D01*
X0143962Y0069930D02*
X0145663Y0069930D01*
X0145911Y0069331D02*
X0143714Y0069331D01*
X0143466Y0068733D02*
X0146159Y0068733D01*
X0146745Y0068134D02*
X0142880Y0068134D01*
X0142281Y0067536D02*
X0147344Y0067536D01*
X0148742Y0066937D02*
X0140883Y0066937D01*
X0138742Y0066937D02*
X0138112Y0066937D01*
X0138112Y0066339D02*
X0154536Y0066339D01*
X0154536Y0066937D02*
X0150883Y0066937D01*
X0152281Y0067536D02*
X0154536Y0067536D01*
X0154536Y0068134D02*
X0152880Y0068134D01*
X0153466Y0068733D02*
X0154536Y0068733D01*
X0154536Y0069331D02*
X0153714Y0069331D01*
X0153962Y0069930D02*
X0154536Y0069930D01*
X0154536Y0070528D02*
X0154112Y0070528D01*
X0154112Y0071127D02*
X0154536Y0071127D01*
X0154536Y0071725D02*
X0154112Y0071725D01*
X0154112Y0072324D02*
X0154536Y0072324D01*
X0154536Y0072922D02*
X0154112Y0072922D01*
X0154112Y0073521D02*
X0154536Y0073521D01*
X0154536Y0074119D02*
X0154112Y0074119D01*
X0154112Y0074718D02*
X0154536Y0074718D01*
X0154536Y0075316D02*
X0154112Y0075316D01*
X0154112Y0075915D02*
X0154536Y0075915D01*
X0154536Y0076513D02*
X0154112Y0076513D01*
X0154112Y0077112D02*
X0154536Y0077112D01*
X0154536Y0077710D02*
X0154112Y0077710D01*
X0153986Y0078309D02*
X0154536Y0078309D01*
X0154536Y0078907D02*
X0153738Y0078907D01*
X0153490Y0079506D02*
X0154536Y0079506D01*
X0154536Y0065740D02*
X0138112Y0065740D01*
X0138112Y0065142D02*
X0154536Y0065142D01*
X0154536Y0064543D02*
X0138112Y0064543D01*
X0138112Y0063945D02*
X0154536Y0063945D01*
X0154536Y0063346D02*
X0138112Y0063346D01*
X0138112Y0062748D02*
X0154536Y0062748D01*
X0154536Y0062149D02*
X0138112Y0062149D01*
X0138112Y0061551D02*
X0154536Y0061551D01*
X0154536Y0060952D02*
X0138112Y0060952D01*
X0138112Y0060354D02*
X0154536Y0060354D01*
X0154536Y0059755D02*
X0138112Y0059755D01*
X0138112Y0059157D02*
X0154536Y0059157D01*
X0154536Y0058558D02*
X0138112Y0058558D01*
X0138112Y0057959D02*
X0154536Y0057959D01*
X0154536Y0057361D02*
X0138112Y0057361D01*
X0138112Y0056762D02*
X0154536Y0056762D01*
X0154536Y0056164D02*
X0138112Y0056164D01*
X0138112Y0055565D02*
X0154536Y0055565D01*
X0154536Y0054967D02*
X0138112Y0054967D01*
X0138112Y0054368D02*
X0154536Y0054368D01*
X0154536Y0053770D02*
X0138112Y0053770D01*
X0138112Y0053171D02*
X0154536Y0053171D01*
X0154536Y0052573D02*
X0138112Y0052573D01*
X0137900Y0051974D02*
X0154536Y0051974D01*
X0154536Y0051376D02*
X0137653Y0051376D01*
X0137114Y0050777D02*
X0154536Y0050777D01*
X0154536Y0050179D02*
X0136516Y0050179D01*
X0135917Y0049580D02*
X0154536Y0049580D01*
X0154536Y0048982D02*
X0135319Y0048982D01*
X0134720Y0048383D02*
X0154536Y0048383D01*
X0154536Y0047785D02*
X0134122Y0047785D01*
X0133523Y0047186D02*
X0154536Y0047186D01*
X0154536Y0046588D02*
X0132925Y0046588D01*
X0132326Y0045989D02*
X0154536Y0045989D01*
X0154536Y0045391D02*
X0131782Y0045391D01*
X0131782Y0044792D02*
X0154536Y0044792D01*
X0154536Y0044194D02*
X0131782Y0044194D01*
X0115182Y0044792D02*
X0107375Y0044792D01*
X0107859Y0045391D02*
X0115182Y0045391D01*
X0115182Y0045989D02*
X0108107Y0045989D01*
X0108355Y0047785D02*
X0114731Y0047785D01*
X0114133Y0048383D02*
X0108236Y0048383D01*
X0107988Y0048982D02*
X0113534Y0048982D01*
X0112936Y0049580D02*
X0107866Y0049580D01*
X0107866Y0050179D02*
X0112337Y0050179D01*
X0111739Y0050777D02*
X0110885Y0050777D01*
X0107968Y0050777D02*
X0107866Y0050777D01*
X0097968Y0050777D02*
X0090876Y0050777D01*
X0091077Y0050843D02*
X0091680Y0051150D01*
X0092228Y0051548D01*
X0092706Y0052026D01*
X0093104Y0052574D01*
X0093412Y0053177D01*
X0093621Y0053821D01*
X0093727Y0054489D01*
X0093727Y0057528D01*
X0089727Y0057528D01*
X0089727Y0058128D01*
X0093727Y0058128D01*
X0093727Y0061166D01*
X0093621Y0061835D01*
X0093412Y0062478D01*
X0093104Y0063081D01*
X0092706Y0063629D01*
X0092228Y0064108D01*
X0091680Y0064505D01*
X0091077Y0064813D01*
X0090434Y0065022D01*
X0089765Y0065128D01*
X0089727Y0065128D01*
X0089727Y0058128D01*
X0089127Y0058128D01*
X0089127Y0065128D01*
X0089088Y0065128D01*
X0088420Y0065022D01*
X0087776Y0064813D01*
X0087173Y0064505D01*
X0086625Y0064108D01*
X0086147Y0063629D01*
X0085749Y0063081D01*
X0085442Y0062478D01*
X0085232Y0061835D01*
X0085127Y0061166D01*
X0085127Y0058128D01*
X0089127Y0058128D01*
X0089127Y0057528D01*
X0089727Y0057528D01*
X0089727Y0050528D01*
X0089765Y0050528D01*
X0090434Y0050634D01*
X0091077Y0050843D01*
X0091991Y0051376D02*
X0096797Y0051376D01*
X0096199Y0051974D02*
X0092654Y0051974D01*
X0093104Y0052573D02*
X0095706Y0052573D01*
X0095458Y0053171D02*
X0093409Y0053171D01*
X0093604Y0053770D02*
X0095210Y0053770D01*
X0095127Y0054368D02*
X0093707Y0054368D01*
X0093727Y0054967D02*
X0095127Y0054967D01*
X0095127Y0055565D02*
X0093727Y0055565D01*
X0093727Y0056164D02*
X0095127Y0056164D01*
X0095127Y0056762D02*
X0093727Y0056762D01*
X0093727Y0057361D02*
X0095127Y0057361D01*
X0095127Y0057959D02*
X0089727Y0057959D01*
X0089727Y0057361D02*
X0089127Y0057361D01*
X0089127Y0057528D02*
X0089127Y0050528D01*
X0089088Y0050528D01*
X0088420Y0050634D01*
X0087776Y0050843D01*
X0087173Y0051150D01*
X0086625Y0051548D01*
X0086147Y0052026D01*
X0085749Y0052574D01*
X0085442Y0053177D01*
X0085232Y0053821D01*
X0085127Y0054489D01*
X0085127Y0057528D01*
X0089127Y0057528D01*
X0089127Y0057959D02*
X0083727Y0057959D01*
X0083727Y0057361D02*
X0085127Y0057361D01*
X0085127Y0056762D02*
X0083727Y0056762D01*
X0083727Y0056164D02*
X0085127Y0056164D01*
X0085127Y0055565D02*
X0083727Y0055565D01*
X0083727Y0054967D02*
X0085127Y0054967D01*
X0085146Y0054368D02*
X0083727Y0054368D01*
X0083727Y0053972D02*
X0083727Y0061683D01*
X0083072Y0063263D01*
X0081862Y0064473D01*
X0080282Y0065128D01*
X0078571Y0065128D01*
X0076991Y0064473D01*
X0075781Y0063263D01*
X0075127Y0061683D01*
X0075127Y0053972D01*
X0075781Y0052392D01*
X0076991Y0051182D01*
X0078571Y0050528D01*
X0080282Y0050528D01*
X0081862Y0051182D01*
X0083072Y0052392D01*
X0083727Y0053972D01*
X0083643Y0053770D02*
X0085249Y0053770D01*
X0085445Y0053171D02*
X0083395Y0053171D01*
X0083147Y0052573D02*
X0085750Y0052573D01*
X0086199Y0051974D02*
X0082654Y0051974D01*
X0082056Y0051376D02*
X0086862Y0051376D01*
X0087977Y0050777D02*
X0080885Y0050777D01*
X0077968Y0050777D02*
X0070885Y0050777D01*
X0070282Y0050528D02*
X0071862Y0051182D01*
X0073072Y0052392D01*
X0073727Y0053972D01*
X0073727Y0061683D01*
X0073072Y0063263D01*
X0071862Y0064473D01*
X0070282Y0065128D01*
X0068571Y0065128D01*
X0066991Y0064473D01*
X0065781Y0063263D01*
X0065127Y0061683D01*
X0065127Y0053972D01*
X0065781Y0052392D01*
X0066991Y0051182D01*
X0068571Y0050528D01*
X0070282Y0050528D01*
X0072056Y0051376D02*
X0076797Y0051376D01*
X0076199Y0051974D02*
X0072654Y0051974D01*
X0073147Y0052573D02*
X0075706Y0052573D01*
X0075458Y0053171D02*
X0073395Y0053171D01*
X0073643Y0053770D02*
X0075210Y0053770D01*
X0075127Y0054368D02*
X0073727Y0054368D01*
X0073727Y0054967D02*
X0075127Y0054967D01*
X0075127Y0055565D02*
X0073727Y0055565D01*
X0073727Y0056164D02*
X0075127Y0056164D01*
X0075127Y0056762D02*
X0073727Y0056762D01*
X0073727Y0057361D02*
X0075127Y0057361D01*
X0075127Y0057959D02*
X0073727Y0057959D01*
X0073727Y0058558D02*
X0075127Y0058558D01*
X0075127Y0059157D02*
X0073727Y0059157D01*
X0073727Y0059755D02*
X0075127Y0059755D01*
X0075127Y0060354D02*
X0073727Y0060354D01*
X0073727Y0060952D02*
X0075127Y0060952D01*
X0075127Y0061551D02*
X0073727Y0061551D01*
X0073534Y0062149D02*
X0075320Y0062149D01*
X0075568Y0062748D02*
X0073286Y0062748D01*
X0072989Y0063346D02*
X0075864Y0063346D01*
X0076462Y0063945D02*
X0072391Y0063945D01*
X0071693Y0064543D02*
X0077160Y0064543D01*
X0078742Y0066937D02*
X0070883Y0066937D01*
X0072281Y0067536D02*
X0077344Y0067536D01*
X0076745Y0068134D02*
X0072880Y0068134D01*
X0073466Y0068733D02*
X0076159Y0068733D01*
X0075911Y0069331D02*
X0073714Y0069331D01*
X0073962Y0069930D02*
X0075663Y0069930D01*
X0075512Y0070528D02*
X0074112Y0070528D01*
X0074112Y0071127D02*
X0075512Y0071127D01*
X0075512Y0071725D02*
X0074112Y0071725D01*
X0074112Y0072324D02*
X0075512Y0072324D01*
X0075512Y0072922D02*
X0074112Y0072922D01*
X0074112Y0073521D02*
X0075512Y0073521D01*
X0075512Y0074119D02*
X0074112Y0074119D01*
X0074112Y0074718D02*
X0075512Y0074718D01*
X0075512Y0075316D02*
X0074112Y0075316D01*
X0074112Y0075915D02*
X0075512Y0075915D01*
X0075512Y0076513D02*
X0074112Y0076513D01*
X0074112Y0077112D02*
X0075512Y0077112D01*
X0075512Y0077710D02*
X0074112Y0077710D01*
X0073986Y0078309D02*
X0075639Y0078309D01*
X0075887Y0078907D02*
X0073738Y0078907D01*
X0073490Y0079506D02*
X0076135Y0079506D01*
X0083490Y0079506D02*
X0086135Y0079506D01*
X0085887Y0078907D02*
X0083738Y0078907D01*
X0083986Y0078309D02*
X0085639Y0078309D01*
X0085512Y0077710D02*
X0084112Y0077710D01*
X0084112Y0077112D02*
X0085512Y0077112D01*
X0085512Y0076513D02*
X0084112Y0076513D01*
X0084112Y0075915D02*
X0085512Y0075915D01*
X0085512Y0075316D02*
X0084112Y0075316D01*
X0084112Y0074718D02*
X0085512Y0074718D01*
X0085512Y0074119D02*
X0084112Y0074119D01*
X0084112Y0073521D02*
X0085512Y0073521D01*
X0085512Y0072922D02*
X0084112Y0072922D01*
X0084112Y0072324D02*
X0085512Y0072324D01*
X0085512Y0071725D02*
X0084112Y0071725D01*
X0084112Y0071127D02*
X0085512Y0071127D01*
X0085512Y0070528D02*
X0084112Y0070528D01*
X0083962Y0069930D02*
X0085663Y0069930D01*
X0085911Y0069331D02*
X0083714Y0069331D01*
X0083466Y0068733D02*
X0086159Y0068733D01*
X0086745Y0068134D02*
X0082880Y0068134D01*
X0082281Y0067536D02*
X0087344Y0067536D01*
X0088742Y0066937D02*
X0080883Y0066937D01*
X0081693Y0064543D02*
X0087247Y0064543D01*
X0086462Y0063945D02*
X0082391Y0063945D01*
X0082989Y0063346D02*
X0085941Y0063346D01*
X0085579Y0062748D02*
X0083286Y0062748D01*
X0083534Y0062149D02*
X0085335Y0062149D01*
X0085188Y0061551D02*
X0083727Y0061551D01*
X0083727Y0060952D02*
X0085127Y0060952D01*
X0085127Y0060354D02*
X0083727Y0060354D01*
X0083727Y0059755D02*
X0085127Y0059755D01*
X0085127Y0059157D02*
X0083727Y0059157D01*
X0083727Y0058558D02*
X0085127Y0058558D01*
X0089127Y0058558D02*
X0089727Y0058558D01*
X0089727Y0059157D02*
X0089127Y0059157D01*
X0089127Y0059755D02*
X0089727Y0059755D01*
X0089727Y0060354D02*
X0089127Y0060354D01*
X0089127Y0060952D02*
X0089727Y0060952D01*
X0089727Y0061551D02*
X0089127Y0061551D01*
X0089127Y0062149D02*
X0089727Y0062149D01*
X0089727Y0062748D02*
X0089127Y0062748D01*
X0089127Y0063346D02*
X0089727Y0063346D01*
X0089727Y0063945D02*
X0089127Y0063945D01*
X0089127Y0064543D02*
X0089727Y0064543D01*
X0091606Y0064543D02*
X0097160Y0064543D01*
X0096462Y0063945D02*
X0092391Y0063945D01*
X0092912Y0063346D02*
X0095864Y0063346D01*
X0095568Y0062748D02*
X0093274Y0062748D01*
X0093519Y0062149D02*
X0095320Y0062149D01*
X0095127Y0061551D02*
X0093666Y0061551D01*
X0093727Y0060952D02*
X0095127Y0060952D01*
X0095127Y0060354D02*
X0093727Y0060354D01*
X0093727Y0059755D02*
X0095127Y0059755D01*
X0095127Y0059157D02*
X0093727Y0059157D01*
X0093727Y0058558D02*
X0095127Y0058558D01*
X0089727Y0056762D02*
X0089127Y0056762D01*
X0089127Y0056164D02*
X0089727Y0056164D01*
X0089727Y0055565D02*
X0089127Y0055565D01*
X0089127Y0054967D02*
X0089727Y0054967D01*
X0089727Y0054368D02*
X0089127Y0054368D01*
X0089127Y0053770D02*
X0089727Y0053770D01*
X0089727Y0053171D02*
X0089127Y0053171D01*
X0089127Y0052573D02*
X0089727Y0052573D01*
X0089727Y0051974D02*
X0089127Y0051974D01*
X0089127Y0051376D02*
X0089727Y0051376D01*
X0089727Y0050777D02*
X0089127Y0050777D01*
X0067968Y0050777D02*
X0060876Y0050777D01*
X0061077Y0050843D02*
X0060434Y0050634D01*
X0059765Y0050528D01*
X0059727Y0050528D01*
X0059727Y0057528D01*
X0059727Y0058128D01*
X0063727Y0058128D01*
X0063727Y0061166D01*
X0063621Y0061835D01*
X0063412Y0062478D01*
X0063104Y0063081D01*
X0062706Y0063629D01*
X0062228Y0064108D01*
X0061680Y0064505D01*
X0061077Y0064813D01*
X0060434Y0065022D01*
X0059765Y0065128D01*
X0059727Y0065128D01*
X0059727Y0058128D01*
X0059127Y0058128D01*
X0059127Y0065128D01*
X0059088Y0065128D01*
X0058420Y0065022D01*
X0057776Y0064813D01*
X0057173Y0064505D01*
X0056625Y0064108D01*
X0056147Y0063629D01*
X0055749Y0063081D01*
X0055442Y0062478D01*
X0055232Y0061835D01*
X0055127Y0061166D01*
X0055127Y0058128D01*
X0059127Y0058128D01*
X0059127Y0057528D01*
X0059727Y0057528D01*
X0063727Y0057528D01*
X0063727Y0054489D01*
X0063621Y0053821D01*
X0063412Y0053177D01*
X0063104Y0052574D01*
X0062706Y0052026D01*
X0062228Y0051548D01*
X0061680Y0051150D01*
X0061077Y0050843D01*
X0061991Y0051376D02*
X0066797Y0051376D01*
X0066199Y0051974D02*
X0062654Y0051974D01*
X0063104Y0052573D02*
X0065706Y0052573D01*
X0065458Y0053171D02*
X0063409Y0053171D01*
X0063604Y0053770D02*
X0065210Y0053770D01*
X0065127Y0054368D02*
X0063707Y0054368D01*
X0063727Y0054967D02*
X0065127Y0054967D01*
X0065127Y0055565D02*
X0063727Y0055565D01*
X0063727Y0056164D02*
X0065127Y0056164D01*
X0065127Y0056762D02*
X0063727Y0056762D01*
X0063727Y0057361D02*
X0065127Y0057361D01*
X0065127Y0057959D02*
X0059727Y0057959D01*
X0059727Y0057361D02*
X0059127Y0057361D01*
X0059127Y0057528D02*
X0059127Y0050528D01*
X0059088Y0050528D01*
X0058420Y0050634D01*
X0057776Y0050843D01*
X0057173Y0051150D01*
X0056625Y0051548D01*
X0056147Y0052026D01*
X0055749Y0052574D01*
X0055442Y0053177D01*
X0055232Y0053821D01*
X0055127Y0054489D01*
X0055127Y0057528D01*
X0059127Y0057528D01*
X0059127Y0057959D02*
X0053727Y0057959D01*
X0053727Y0057361D02*
X0055127Y0057361D01*
X0055127Y0056762D02*
X0053727Y0056762D01*
X0053727Y0056164D02*
X0055127Y0056164D01*
X0055127Y0055565D02*
X0053727Y0055565D01*
X0053727Y0054967D02*
X0055127Y0054967D01*
X0055146Y0054368D02*
X0053727Y0054368D01*
X0053643Y0053770D02*
X0055249Y0053770D01*
X0055445Y0053171D02*
X0053395Y0053171D01*
X0053147Y0052573D02*
X0055750Y0052573D01*
X0056199Y0051974D02*
X0052654Y0051974D01*
X0052056Y0051376D02*
X0056862Y0051376D01*
X0057977Y0050777D02*
X0050885Y0050777D01*
X0059127Y0050777D02*
X0059727Y0050777D01*
X0059727Y0051376D02*
X0059127Y0051376D01*
X0059127Y0051974D02*
X0059727Y0051974D01*
X0059727Y0052573D02*
X0059127Y0052573D01*
X0059127Y0053171D02*
X0059727Y0053171D01*
X0059727Y0053770D02*
X0059127Y0053770D01*
X0059127Y0054368D02*
X0059727Y0054368D01*
X0059727Y0054967D02*
X0059127Y0054967D01*
X0059127Y0055565D02*
X0059727Y0055565D01*
X0059727Y0056164D02*
X0059127Y0056164D01*
X0059127Y0056762D02*
X0059727Y0056762D01*
X0059727Y0058558D02*
X0059127Y0058558D01*
X0059127Y0059157D02*
X0059727Y0059157D01*
X0059727Y0059755D02*
X0059127Y0059755D01*
X0059127Y0060354D02*
X0059727Y0060354D01*
X0059727Y0060952D02*
X0059127Y0060952D01*
X0059127Y0061551D02*
X0059727Y0061551D01*
X0059727Y0062149D02*
X0059127Y0062149D01*
X0059127Y0062748D02*
X0059727Y0062748D01*
X0059727Y0063346D02*
X0059127Y0063346D01*
X0059127Y0063945D02*
X0059727Y0063945D01*
X0059727Y0064543D02*
X0059127Y0064543D01*
X0057247Y0064543D02*
X0054945Y0064543D01*
X0054347Y0063945D02*
X0056462Y0063945D01*
X0055941Y0063346D02*
X0053742Y0063346D01*
X0053286Y0062748D02*
X0055579Y0062748D01*
X0055335Y0062149D02*
X0053534Y0062149D01*
X0053727Y0061551D02*
X0055188Y0061551D01*
X0055127Y0060952D02*
X0053727Y0060952D01*
X0053727Y0060354D02*
X0055127Y0060354D01*
X0055127Y0059755D02*
X0053727Y0059755D01*
X0053727Y0059157D02*
X0055127Y0059157D01*
X0055127Y0058558D02*
X0053727Y0058558D01*
X0063727Y0058558D02*
X0065127Y0058558D01*
X0065127Y0059157D02*
X0063727Y0059157D01*
X0063727Y0059755D02*
X0065127Y0059755D01*
X0065127Y0060354D02*
X0063727Y0060354D01*
X0063727Y0060952D02*
X0065127Y0060952D01*
X0065127Y0061551D02*
X0063666Y0061551D01*
X0063519Y0062149D02*
X0065320Y0062149D01*
X0065568Y0062748D02*
X0063274Y0062748D01*
X0062912Y0063346D02*
X0065864Y0063346D01*
X0066462Y0063945D02*
X0062391Y0063945D01*
X0061606Y0064543D02*
X0067160Y0064543D01*
X0068742Y0066937D02*
X0060883Y0066937D01*
X0062281Y0067536D02*
X0067344Y0067536D01*
X0066745Y0068134D02*
X0062880Y0068134D01*
X0063466Y0068733D02*
X0066159Y0068733D01*
X0065911Y0069331D02*
X0063714Y0069331D01*
X0063962Y0069930D02*
X0065663Y0069930D01*
X0065512Y0070528D02*
X0064112Y0070528D01*
X0064112Y0071127D02*
X0065512Y0071127D01*
X0065512Y0071725D02*
X0064112Y0071725D01*
X0064112Y0072324D02*
X0065512Y0072324D01*
X0065512Y0072922D02*
X0064112Y0072922D01*
X0064112Y0073521D02*
X0065512Y0073521D01*
X0065512Y0074119D02*
X0064112Y0074119D01*
X0064112Y0074718D02*
X0065512Y0074718D01*
X0065512Y0075316D02*
X0064112Y0075316D01*
X0064112Y0075915D02*
X0065512Y0075915D01*
X0065512Y0076513D02*
X0064112Y0076513D01*
X0064112Y0077112D02*
X0065512Y0077112D01*
X0065512Y0077710D02*
X0064112Y0077710D01*
X0063986Y0078309D02*
X0065639Y0078309D01*
X0065887Y0078907D02*
X0063738Y0078907D01*
X0063490Y0079506D02*
X0066135Y0079506D01*
X0058742Y0066937D02*
X0057340Y0066937D01*
X0056741Y0066339D02*
X0101266Y0066339D01*
X0101266Y0066937D02*
X0100883Y0066937D01*
X0101266Y0065740D02*
X0056142Y0065740D01*
X0055544Y0065142D02*
X0101266Y0065142D01*
X0098742Y0066937D02*
X0090883Y0066937D01*
X0092281Y0067536D02*
X0097344Y0067536D01*
X0096745Y0068134D02*
X0092880Y0068134D01*
X0093466Y0068733D02*
X0096159Y0068733D01*
X0095911Y0069331D02*
X0093714Y0069331D01*
X0093962Y0069930D02*
X0095663Y0069930D01*
X0095512Y0070528D02*
X0094112Y0070528D01*
X0094112Y0071127D02*
X0095512Y0071127D01*
X0095512Y0071725D02*
X0094112Y0071725D01*
X0094112Y0072324D02*
X0095512Y0072324D01*
X0095512Y0072922D02*
X0094112Y0072922D01*
X0094112Y0073521D02*
X0095512Y0073521D01*
X0095512Y0074119D02*
X0094112Y0074119D01*
X0094112Y0074718D02*
X0095512Y0074718D01*
X0095512Y0075316D02*
X0094112Y0075316D01*
X0094112Y0075915D02*
X0095512Y0075915D01*
X0095512Y0076513D02*
X0094112Y0076513D01*
X0094112Y0077112D02*
X0095512Y0077112D01*
X0095512Y0077710D02*
X0094112Y0077710D01*
X0093986Y0078309D02*
X0095639Y0078309D01*
X0095887Y0078907D02*
X0093738Y0078907D01*
X0093490Y0079506D02*
X0096135Y0079506D01*
X0117727Y0066937D02*
X0118742Y0066937D01*
X0121606Y0064543D02*
X0127160Y0064543D01*
X0126462Y0063945D02*
X0122391Y0063945D01*
X0122912Y0063346D02*
X0125864Y0063346D01*
X0125568Y0062748D02*
X0123274Y0062748D01*
X0123519Y0062149D02*
X0125320Y0062149D01*
X0125127Y0061551D02*
X0123666Y0061551D01*
X0123727Y0060952D02*
X0125127Y0060952D01*
X0125127Y0060354D02*
X0123727Y0060354D01*
X0123727Y0059755D02*
X0125127Y0059755D01*
X0125127Y0059157D02*
X0123727Y0059157D01*
X0126179Y0033421D02*
X0120785Y0033421D01*
X0121384Y0032822D02*
X0125580Y0032822D01*
X0124982Y0032224D02*
X0121982Y0032224D01*
X0122581Y0031625D02*
X0124383Y0031625D01*
X0124182Y0031026D02*
X0122782Y0031026D01*
X0122782Y0030428D02*
X0124182Y0030428D01*
X0124182Y0029829D02*
X0122782Y0029829D01*
X0122782Y0029231D02*
X0124182Y0029231D01*
X0124182Y0028632D02*
X0122782Y0028632D01*
X0122782Y0028034D02*
X0124182Y0028034D01*
X0124608Y0027435D02*
X0122356Y0027435D01*
X0121757Y0026837D02*
X0125207Y0026837D01*
X0110495Y0024443D02*
X0005656Y0024443D01*
X0005656Y0023844D02*
X0110423Y0023844D01*
X0110423Y0023246D02*
X0005656Y0023246D01*
X0005656Y0022647D02*
X0009503Y0022647D01*
X0009874Y0022647D02*
X0010474Y0022647D01*
X0010844Y0022647D02*
X0019191Y0022647D01*
X0017746Y0022049D02*
X0012467Y0022049D01*
X0013204Y0021450D02*
X0017143Y0021450D01*
X0016544Y0020852D02*
X0013707Y0020852D01*
X0014055Y0020253D02*
X0016287Y0020253D01*
X0016039Y0019655D02*
X0014287Y0019655D01*
X0014423Y0019056D02*
X0015874Y0019056D01*
X0015874Y0018458D02*
X0014474Y0018458D01*
X0014474Y0017859D02*
X0015874Y0017859D01*
X0015874Y0017261D02*
X0014474Y0017261D01*
X0014474Y0016662D02*
X0015874Y0016662D01*
X0015874Y0016064D02*
X0014474Y0016064D01*
X0014474Y0014867D02*
X0015874Y0014867D01*
X0015874Y0015465D02*
X0010474Y0015465D01*
X0010474Y0016064D02*
X0009874Y0016064D01*
X0009874Y0016662D02*
X0010474Y0016662D01*
X0010474Y0017261D02*
X0009874Y0017261D01*
X0009874Y0017859D02*
X0010474Y0017859D01*
X0010474Y0018458D02*
X0009874Y0018458D01*
X0009874Y0019056D02*
X0010474Y0019056D01*
X0010474Y0019655D02*
X0009874Y0019655D01*
X0009874Y0020253D02*
X0010474Y0020253D01*
X0010474Y0020852D02*
X0009874Y0020852D01*
X0009874Y0021450D02*
X0010474Y0021450D01*
X0010474Y0022049D02*
X0009874Y0022049D01*
X0007880Y0022049D02*
X0005656Y0022049D01*
X0005656Y0021450D02*
X0007143Y0021450D01*
X0006640Y0020852D02*
X0005656Y0020852D01*
X0005656Y0020253D02*
X0006292Y0020253D01*
X0006060Y0019655D02*
X0005656Y0019655D01*
X0005656Y0019056D02*
X0005924Y0019056D01*
X0005874Y0018458D02*
X0005656Y0018458D01*
X0005656Y0017859D02*
X0005874Y0017859D01*
X0005874Y0017261D02*
X0005656Y0017261D01*
X0005656Y0016662D02*
X0005874Y0016662D01*
X0005874Y0016064D02*
X0005656Y0016064D01*
X0005656Y0015465D02*
X0009873Y0015465D01*
X0005874Y0014867D02*
X0005656Y0014867D01*
X0005656Y0014268D02*
X0005874Y0014268D01*
X0005874Y0013670D02*
X0005656Y0013670D01*
X0005656Y0013071D02*
X0005874Y0013071D01*
X0005874Y0012473D02*
X0005656Y0012473D01*
X0005656Y0011874D02*
X0005903Y0011874D01*
X0006018Y0011276D02*
X0005656Y0011276D01*
X0005656Y0010677D02*
X0006225Y0010677D01*
X0006545Y0010079D02*
X0005656Y0010079D01*
X0013802Y0010079D02*
X0016481Y0010079D01*
X0016233Y0010677D02*
X0014122Y0010677D01*
X0014330Y0011276D02*
X0015985Y0011276D01*
X0015874Y0011874D02*
X0014444Y0011874D01*
X0014474Y0012473D02*
X0015874Y0012473D01*
X0015874Y0013071D02*
X0014474Y0013071D01*
X0014474Y0013670D02*
X0015874Y0013670D01*
X0015874Y0014268D02*
X0014474Y0014268D01*
X0023866Y0010079D02*
X0026481Y0010079D01*
X0026233Y0010677D02*
X0024114Y0010677D01*
X0024362Y0011276D02*
X0025985Y0011276D01*
X0025874Y0011874D02*
X0024474Y0011874D01*
X0024474Y0012473D02*
X0025874Y0012473D01*
X0025874Y0013071D02*
X0024474Y0013071D01*
X0024474Y0013670D02*
X0025874Y0013670D01*
X0025874Y0014268D02*
X0024474Y0014268D01*
X0024474Y0014867D02*
X0025874Y0014867D01*
X0025874Y0015465D02*
X0024474Y0015465D01*
X0024474Y0016064D02*
X0025874Y0016064D01*
X0025874Y0016662D02*
X0024474Y0016662D01*
X0024474Y0017261D02*
X0025874Y0017261D01*
X0025874Y0017859D02*
X0024474Y0017859D01*
X0024474Y0018458D02*
X0025874Y0018458D01*
X0025874Y0019056D02*
X0024474Y0019056D01*
X0024308Y0019655D02*
X0026039Y0019655D01*
X0026287Y0020253D02*
X0024060Y0020253D01*
X0023803Y0020852D02*
X0026544Y0020852D01*
X0027143Y0021450D02*
X0023204Y0021450D01*
X0022601Y0022049D02*
X0027746Y0022049D01*
X0029191Y0022647D02*
X0021156Y0022647D01*
X0031156Y0022647D02*
X0039191Y0022647D01*
X0037746Y0022049D02*
X0032601Y0022049D01*
X0033204Y0021450D02*
X0037143Y0021450D01*
X0036544Y0020852D02*
X0033803Y0020852D01*
X0034060Y0020253D02*
X0036287Y0020253D01*
X0036039Y0019655D02*
X0034308Y0019655D01*
X0034474Y0019056D02*
X0035874Y0019056D01*
X0035874Y0018458D02*
X0034474Y0018458D01*
X0034474Y0017859D02*
X0035874Y0017859D01*
X0035874Y0017261D02*
X0034474Y0017261D01*
X0034474Y0016662D02*
X0035874Y0016662D01*
X0035874Y0016064D02*
X0034474Y0016064D01*
X0034474Y0015465D02*
X0035874Y0015465D01*
X0035874Y0014867D02*
X0034474Y0014867D01*
X0034474Y0014268D02*
X0035874Y0014268D01*
X0035874Y0013670D02*
X0034474Y0013670D01*
X0034474Y0013071D02*
X0035874Y0013071D01*
X0035874Y0012473D02*
X0034474Y0012473D01*
X0034474Y0011874D02*
X0035874Y0011874D01*
X0035985Y0011276D02*
X0034362Y0011276D01*
X0034114Y0010677D02*
X0036233Y0010677D01*
X0036481Y0010079D02*
X0033866Y0010079D01*
X0043866Y0010079D02*
X0046481Y0010079D01*
X0046233Y0010677D02*
X0044114Y0010677D01*
X0044362Y0011276D02*
X0045985Y0011276D01*
X0045874Y0011874D02*
X0044474Y0011874D01*
X0044474Y0012473D02*
X0045874Y0012473D01*
X0045874Y0013071D02*
X0044474Y0013071D01*
X0044474Y0013670D02*
X0045874Y0013670D01*
X0045874Y0014268D02*
X0044474Y0014268D01*
X0044474Y0014867D02*
X0045874Y0014867D01*
X0045874Y0015465D02*
X0044474Y0015465D01*
X0044474Y0016064D02*
X0045874Y0016064D01*
X0045874Y0016662D02*
X0044474Y0016662D01*
X0044474Y0017261D02*
X0045874Y0017261D01*
X0045874Y0017859D02*
X0044474Y0017859D01*
X0044474Y0018458D02*
X0045874Y0018458D01*
X0045874Y0019056D02*
X0044474Y0019056D01*
X0044308Y0019655D02*
X0046039Y0019655D01*
X0046287Y0020253D02*
X0044060Y0020253D01*
X0043803Y0020852D02*
X0046544Y0020852D01*
X0047143Y0021450D02*
X0043204Y0021450D01*
X0042601Y0022049D02*
X0047746Y0022049D01*
X0049191Y0022647D02*
X0041156Y0022647D01*
X0051156Y0022647D02*
X0059191Y0022647D01*
X0057746Y0022049D02*
X0052601Y0022049D01*
X0053204Y0021450D02*
X0057143Y0021450D01*
X0056544Y0020852D02*
X0053803Y0020852D01*
X0054060Y0020253D02*
X0056287Y0020253D01*
X0056039Y0019655D02*
X0054308Y0019655D01*
X0054474Y0019056D02*
X0055874Y0019056D01*
X0055874Y0018458D02*
X0054474Y0018458D01*
X0054474Y0017859D02*
X0055874Y0017859D01*
X0055874Y0017261D02*
X0054474Y0017261D01*
X0054474Y0016662D02*
X0055874Y0016662D01*
X0055874Y0016064D02*
X0054474Y0016064D01*
X0054474Y0015465D02*
X0055874Y0015465D01*
X0055874Y0014867D02*
X0054474Y0014867D01*
X0054474Y0014268D02*
X0055874Y0014268D01*
X0055874Y0013670D02*
X0054474Y0013670D01*
X0054474Y0013071D02*
X0055874Y0013071D01*
X0055874Y0012473D02*
X0054474Y0012473D01*
X0054474Y0011874D02*
X0055874Y0011874D01*
X0055985Y0011276D02*
X0054362Y0011276D01*
X0054114Y0010677D02*
X0056233Y0010677D01*
X0056481Y0010079D02*
X0053866Y0010079D01*
X0063866Y0010079D02*
X0066481Y0010079D01*
X0066233Y0010677D02*
X0064114Y0010677D01*
X0064362Y0011276D02*
X0065985Y0011276D01*
X0065874Y0011874D02*
X0064474Y0011874D01*
X0064474Y0012473D02*
X0065874Y0012473D01*
X0065874Y0013071D02*
X0064474Y0013071D01*
X0064474Y0013670D02*
X0065874Y0013670D01*
X0065874Y0014268D02*
X0064474Y0014268D01*
X0064474Y0014867D02*
X0065874Y0014867D01*
X0065874Y0015465D02*
X0064474Y0015465D01*
X0064474Y0016064D02*
X0065874Y0016064D01*
X0065874Y0016662D02*
X0064474Y0016662D01*
X0064474Y0017261D02*
X0065874Y0017261D01*
X0065874Y0017859D02*
X0064474Y0017859D01*
X0064474Y0018458D02*
X0065874Y0018458D01*
X0065874Y0019056D02*
X0064474Y0019056D01*
X0064308Y0019655D02*
X0066039Y0019655D01*
X0066287Y0020253D02*
X0064060Y0020253D01*
X0063803Y0020852D02*
X0066544Y0020852D01*
X0067143Y0021450D02*
X0063204Y0021450D01*
X0062601Y0022049D02*
X0067746Y0022049D01*
X0069191Y0022647D02*
X0061156Y0022647D01*
X0071156Y0022647D02*
X0079191Y0022647D01*
X0077746Y0022049D02*
X0072601Y0022049D01*
X0073204Y0021450D02*
X0077143Y0021450D01*
X0076544Y0020852D02*
X0073803Y0020852D01*
X0074060Y0020253D02*
X0076287Y0020253D01*
X0076039Y0019655D02*
X0074308Y0019655D01*
X0074474Y0019056D02*
X0075874Y0019056D01*
X0075874Y0018458D02*
X0074474Y0018458D01*
X0074474Y0017859D02*
X0075874Y0017859D01*
X0075874Y0017261D02*
X0074474Y0017261D01*
X0074474Y0016662D02*
X0075874Y0016662D01*
X0075874Y0016064D02*
X0074474Y0016064D01*
X0074474Y0015465D02*
X0075874Y0015465D01*
X0075874Y0014867D02*
X0074474Y0014867D01*
X0074474Y0014268D02*
X0075874Y0014268D01*
X0075874Y0013670D02*
X0074474Y0013670D01*
X0074474Y0013071D02*
X0075874Y0013071D01*
X0075874Y0012473D02*
X0074474Y0012473D01*
X0074474Y0011874D02*
X0075874Y0011874D01*
X0075985Y0011276D02*
X0074362Y0011276D01*
X0074114Y0010677D02*
X0076233Y0010677D01*
X0076481Y0010079D02*
X0073866Y0010079D01*
X0083866Y0010079D02*
X0086481Y0010079D01*
X0086233Y0010677D02*
X0084114Y0010677D01*
X0084362Y0011276D02*
X0085985Y0011276D01*
X0085874Y0011874D02*
X0084474Y0011874D01*
X0084474Y0012473D02*
X0085874Y0012473D01*
X0085874Y0013071D02*
X0084474Y0013071D01*
X0084474Y0013670D02*
X0085874Y0013670D01*
X0085874Y0014268D02*
X0084474Y0014268D01*
X0084474Y0014867D02*
X0085874Y0014867D01*
X0085874Y0015465D02*
X0084474Y0015465D01*
X0084474Y0016064D02*
X0085874Y0016064D01*
X0085874Y0016662D02*
X0084474Y0016662D01*
X0084474Y0017261D02*
X0085874Y0017261D01*
X0085874Y0017859D02*
X0084474Y0017859D01*
X0084474Y0018458D02*
X0085874Y0018458D01*
X0085874Y0019056D02*
X0084474Y0019056D01*
X0084308Y0019655D02*
X0086039Y0019655D01*
X0086287Y0020253D02*
X0084060Y0020253D01*
X0083803Y0020852D02*
X0086544Y0020852D01*
X0087143Y0021450D02*
X0083204Y0021450D01*
X0082601Y0022049D02*
X0087746Y0022049D01*
X0089191Y0022647D02*
X0081156Y0022647D01*
X0091156Y0022647D02*
X0099191Y0022647D01*
X0097746Y0022049D02*
X0092601Y0022049D01*
X0093204Y0021450D02*
X0097143Y0021450D01*
X0096544Y0020852D02*
X0093803Y0020852D01*
X0094060Y0020253D02*
X0096287Y0020253D01*
X0096039Y0019655D02*
X0094308Y0019655D01*
X0094474Y0019056D02*
X0095874Y0019056D01*
X0095874Y0018458D02*
X0094474Y0018458D01*
X0094474Y0017859D02*
X0095874Y0017859D01*
X0095874Y0017261D02*
X0094474Y0017261D01*
X0094474Y0016662D02*
X0095874Y0016662D01*
X0095874Y0016064D02*
X0094474Y0016064D01*
X0094474Y0015465D02*
X0095874Y0015465D01*
X0095874Y0014867D02*
X0094474Y0014867D01*
X0094474Y0014268D02*
X0095874Y0014268D01*
X0095874Y0013670D02*
X0094474Y0013670D01*
X0094474Y0013071D02*
X0095874Y0013071D01*
X0095874Y0012473D02*
X0094474Y0012473D01*
X0094474Y0011874D02*
X0095874Y0011874D01*
X0095985Y0011276D02*
X0094362Y0011276D01*
X0094114Y0010677D02*
X0096233Y0010677D01*
X0096481Y0010079D02*
X0093866Y0010079D01*
X0103866Y0010079D02*
X0106481Y0010079D01*
X0106233Y0010677D02*
X0104114Y0010677D01*
X0104362Y0011276D02*
X0105985Y0011276D01*
X0105874Y0011874D02*
X0104474Y0011874D01*
X0104474Y0012473D02*
X0105874Y0012473D01*
X0105874Y0013071D02*
X0104474Y0013071D01*
X0104474Y0013670D02*
X0105874Y0013670D01*
X0105874Y0014268D02*
X0104474Y0014268D01*
X0104474Y0014867D02*
X0105874Y0014867D01*
X0105874Y0015465D02*
X0104474Y0015465D01*
X0104474Y0016064D02*
X0105874Y0016064D01*
X0105874Y0016662D02*
X0104474Y0016662D01*
X0104474Y0017261D02*
X0105874Y0017261D01*
X0105874Y0017859D02*
X0104474Y0017859D01*
X0104474Y0018458D02*
X0105874Y0018458D01*
X0105874Y0019056D02*
X0104474Y0019056D01*
X0104308Y0019655D02*
X0106039Y0019655D01*
X0106287Y0020253D02*
X0104060Y0020253D01*
X0103803Y0020852D02*
X0106544Y0020852D01*
X0107143Y0021450D02*
X0103204Y0021450D01*
X0102601Y0022049D02*
X0107746Y0022049D01*
X0109191Y0022647D02*
X0101156Y0022647D01*
X0106179Y0033421D02*
X0067274Y0033421D01*
X0059735Y0031625D02*
X0040861Y0031625D01*
X0041460Y0032224D02*
X0059137Y0032224D01*
X0057848Y0032822D02*
X0042058Y0032822D01*
X0042657Y0033421D02*
X0057248Y0033421D01*
X0056726Y0034019D02*
X0042696Y0034019D01*
X0042696Y0034618D02*
X0056478Y0034618D01*
X0056230Y0035216D02*
X0042696Y0035216D01*
D15*
X0059993Y0036035D03*
X0104566Y0047341D03*
X0114212Y0023515D03*
M02*
